<?xml version="1.0" encoding="UTF-8" standalone="no"?>
<!-- Generator: Adobe Illustrator 15.0.0, SVG Export Plug-In . SVG Version: 6.00 Build 0)  -->

<svg
   xmlns:dc="http://purl.org/dc/elements/1.1/"
   xmlns:cc="http://creativecommons.org/ns#"
   xmlns:rdf="http://www.w3.org/1999/02/22-rdf-syntax-ns#"
   xmlns:svg="http://www.w3.org/2000/svg"
   xmlns="http://www.w3.org/2000/svg"
   xmlns:xlink="http://www.w3.org/1999/xlink"
   xmlns:sodipodi="http://sodipodi.sourceforge.net/DTD/sodipodi-0.dtd"
   xmlns:inkscape="http://www.inkscape.org/namespaces/inkscape"
   version="1.1"
   id="Capa_1"
   x="0px"
   y="0px"
   width="708.18292"
   height="351.173"
   viewBox="0 0 708.18291 351.173"
   enable-background="new 0 0 841.89 595.276"
   xml:space="preserve"
   sodipodi:docname="IDIBELL.svg"
   inkscape:version="0.92.3 (2405546, 2018-03-11)"><metadata
   id="metadata205"><rdf:RDF><cc:Work
       rdf:about=""><dc:format>image/svg+xml</dc:format><dc:type
         rdf:resource="http://purl.org/dc/dcmitype/StillImage" /><dc:title></dc:title></cc:Work></rdf:RDF></metadata><defs
   id="defs203" /><sodipodi:namedview
   pagecolor="#ffffff"
   bordercolor="#666666"
   borderopacity="1"
   objecttolerance="10"
   gridtolerance="10"
   guidetolerance="10"
   inkscape:pageopacity="0"
   inkscape:pageshadow="2"
   inkscape:window-width="1213"
   inkscape:window-height="969"
   id="namedview201"
   showgrid="false"
   fit-margin-top="0"
   fit-margin-left="0"
   fit-margin-right="0"
   fit-margin-bottom="0"
   inkscape:zoom="0.79290951"
   inkscape:cx="370.85069"
   inkscape:cy="61.992992"
   inkscape:window-x="67"
   inkscape:window-y="27"
   inkscape:window-maximized="1"
   inkscape:current-layer="Capa_1" />
<rect
   x="363.46094"
   y="41.764004"
   width="27.813"
   height="90.082001"
   id="rect2"
   style="fill:#672121" />
<g
   id="g12"
   transform="translate(-74.178074,-122.051)">
	<defs
   id="defs5">
		<rect
   id="SVGID_1_"
   width="841.89001"
   height="595.276"
   x="0"
   y="0" />
	</defs>
	<clipPath
   id="SVGID_2_">
		<use
   xlink:href="#SVGID_1_"
   overflow="visible"
   id="use7"
   style="overflow:visible"
   x="0"
   y="0"
   width="100%"
   height="100%" />
	</clipPath>
	<path
   clip-path="url(#SVGID_2_)"
   d="m 513.752,233.099 h -7.164 v -48.76 h 7.164 c 9.858,0 16.34,9.601 16.34,24.455 0,14.314 -6.757,24.305 -16.34,24.305 m 45.234,-24.437 c 0,-12.434 -4.176,-23.643 -12.009,-32.139 -8.245,-8.782 -18.373,-12.708 -33.226,-12.708 h -34.84 v 90.082 h 36.596 c 25.657,-0.001 43.479,-18.492 43.479,-45.235"
   id="path10"
   inkscape:connector-curvature="0"
   style="fill:#672121" />
</g>
<rect
   x="494.04593"
   y="41.764004"
   width="27.825001"
   height="90.082001"
   id="rect14"
   style="fill:#672121" />
<g
   id="g24"
   transform="translate(-74.178074,-122.051)">
	<defs
   id="defs17">
		<rect
   id="SVGID_3_"
   width="841.89001"
   height="595.276"
   x="0"
   y="0" />
	</defs>
	<clipPath
   id="SVGID_4_">
		<use
   xlink:href="#SVGID_3_"
   overflow="visible"
   id="use19"
   style="overflow:visible"
   x="0"
   y="0"
   width="100%"
   height="100%" />
	</clipPath>
	<path
   clip-path="url(#SVGID_4_)"
   d="m 476.528,331.569 h -13.503 v -16.203 h 12.565 c 6.752,0 10.659,2.957 10.659,8.227 10e-4,4.857 -3.775,7.976 -9.721,7.976 m -13.503,-50.654 h 12.428 c 5.808,0 9.178,2.713 9.178,7.439 0,4.995 -3.233,7.827 -8.771,7.827 h -12.834 v -15.266 z m 32.413,24.043 c 9.865,-3.113 15.129,-9.996 15.129,-19.711 0,-5.939 -2.301,-11.884 -6.346,-16.204 -4.595,-5.001 -11.347,-7.444 -20.936,-7.444 h -45.647 v 90.087 h 42.81 c 10.934,0 17.423,-1.351 22.555,-4.589 5.939,-3.925 9.858,-12.296 9.858,-21.066 0,-11.215 -5.801,-18.241 -17.423,-21.073"
   id="path22"
   inkscape:connector-curvature="0"
   style="fill:#672121" />
</g>
<polygon
   points="586.608,330.218 546.1,330.218 546.1,315.498 578.913,315.498 578.913,295.517 546.1,295.517 546.1,282.409 586.608,282.409 586.608,261.598 518.956,261.598 518.956,351.686 586.608,351.686 "
   id="polygon26"
   style="fill:#672121"
   transform="translate(-74.178074,-122.051)" />
<polygon
   points="596.049,351.686 659.25,351.686 659.25,329.675 623.861,329.675 623.861,261.598 596.049,261.598 "
   id="polygon28"
   style="fill:#672121"
   transform="translate(-74.178074,-122.051)" />
<polygon
   points="667.925,261.598 667.925,351.686 731.139,351.686 731.139,329.675 695.756,329.675 695.756,261.598 "
   id="polygon30"
   style="fill:#672121"
   transform="translate(-74.178074,-122.051)" />
<g
   id="g42"
   transform="translate(-74.178074,-122.051)">
	<defs
   id="defs33">
		<rect
   id="SVGID_5_"
   width="841.89001"
   height="595.276"
   x="0"
   y="0" />
	</defs>
	<clipPath
   id="SVGID_6_">
		<use
   xlink:href="#SVGID_5_"
   overflow="visible"
   id="use35"
   style="overflow:visible"
   x="0"
   y="0"
   width="100%"
   height="100%" />
	</clipPath>
	<path
   clip-path="url(#SVGID_6_)"
   d="m 556.07,330.219 c -0.196,1 -0.364,1.977 -0.394,2.921 -0.187,5.077 1.263,11.53 1.724,17.583 0.013,0.317 0.036,0.646 0.061,0.964 h 22.049 c -0.252,-2.735 -0.449,-5.501 -0.581,-8.345 -0.174,-4.509 0.191,-9.273 0.138,-13.123 z m 4.701,-19.798 c -0.246,1.503 -1.485,3.113 -2.031,5.082 h 20.188 v -20.001 h -8.872 c -3.551,3.383 -7.118,7.753 -8.304,10.854 -0.448,1.09 -0.795,2.988 -0.981,4.065 m 25.85,-48.82 h -67.667 v 90.086 h 31.496 c 1.27,-2.186 1.119,-4.682 2.956,-7.178 -2.118,1.048 -1.424,-0.359 -2.291,-1.736 -0.127,-2.215 2.43,-1.729 2.291,-3.945 -0.67,-0.102 -1.628,0.09 -1.712,-0.58 0.108,-3.335 -0.053,-4.909 2.264,-6.831 -0.161,-0.371 -0.251,-0.772 -0.316,-1.197 h -7.544 v -14.716 h 7.927 c 1.209,-2.892 3.203,-5.573 3.897,-8.477 -0.012,0.167 -1.09,-0.861 -1.103,-1.144 -0.084,-0.844 1.683,-2.831 1.683,-2.831 0.192,-0.736 -0.658,-1.39 -0.58,-1.701 0.658,-2.022 1.574,-3.939 2.658,-5.849 h -14.482 v -13.11 h 20.151 c -0.252,-0.402 -0.281,-0.779 0.766,-0.928 1.191,-0.156 0.965,0.401 0.898,0.928 h 1.725 c 2.137,-4.167 8.375,-3.49 10.973,-6.034 1.108,3.052 3.395,-1.671 4.592,0 0.401,1.765 -1.993,0.7 -1.174,2.861 1.258,-0.245 2.019,-0.12 2.593,-0.228 v -3.298 c -0.287,0.011 -0.563,0.03 -0.862,0.095 0.216,-0.161 0.516,-0.323 0.862,-0.461 V 261.601 Z M 463.04,280.913 h 12.416 c 5.807,0 9.184,2.699 9.184,7.436 0,4.98 -3.245,7.836 -8.771,7.836 H 463.04 Z m 0,34.435 h 12.548 c 6.759,0 10.668,2.981 10.668,8.25 0,4.861 -3.772,7.968 -9.729,7.968 H 463.04 Z m -23.707,-50.891 c -0.575,-0.21 -1.139,-0.329 -1.694,-0.401 v 42.331 c 3.579,-0.718 7.172,-1.442 10.74,-2.179 -0.192,3.179 1.005,5.047 0.586,8.501 2.263,-0.73 1.575,-3.496 2.263,-4.55 1.605,0.102 1.551,1.861 2.832,2.263 -0.766,2.766 -3.844,4.215 -1.706,6.813 h -1.701 c 0.259,1.06 2.72,4.49 -0.539,3.976 1.114,5.525 2.108,12.009 -0.586,17.067 0.091,1.575 1.03,2.317 1.125,3.921 -5.968,0.174 -8.429,-4.896 -13.014,-5.86 v 15.35 h 42.811 c 10.931,0 17.421,-1.341 22.557,-4.586 5.938,-3.915 9.849,-12.29 9.849,-21.073 0,-11.2 -5.795,-18.229 -17.41,-21.078 9.861,-3.089 15.128,-9.986 15.128,-19.713 0,-5.933 -2.293,-11.89 -6.351,-16.201 -4.592,-4.998 -11.345,-7.434 -20.942,-7.434 h -28.185 c -0.496,0.461 -1.256,0.729 -2.161,0.586 -0.556,-0.024 -0.885,-0.276 -1.155,-0.586 h -3.274 c 0.222,0.687 0.862,1.383 -0.125,1.706 -2.928,0.598 -4.077,-0.587 -5.298,-1.706 h -2.91 c -0.235,1.086 0.476,2.6 -0.84,2.853 m 39.709,-66.985 c -0.048,0.03 -0.09,0.065 -0.139,0.09 v 0.167 c 0.036,-0.083 0.091,-0.166 0.139,-0.257 m -41.403,-31.227 c 0.569,-0.801 1.144,-1.61 1.724,-2.43 h -0.766 c -0.354,0.784 -0.683,1.587 -0.958,2.394 z m 0,2.257 c 1.58,-1.352 2.885,-2.969 4.089,-4.687 h -1.473 c -0.928,1.503 -1.808,3.046 -2.616,4.67 z m 3.957,1.755 c -0.509,-2.216 1.383,-2.03 1.682,-3.431 0.383,-0.126 -0.299,3.431 -1.682,3.431 m 15.32,62.434 c 2.628,-3.946 5.052,-8.082 8.537,-11.16 v -0.658 c -0.426,0.264 -0.707,0.293 -1.323,-0.79 0.472,-0.359 0.921,-0.677 1.323,-0.981 v -8.891 c -1.552,1.407 -3.217,2.694 -5.125,3.754 1.58,-3.754 3.299,-7.352 5.125,-10.854 v -39.296 h -19.367 c -0.139,0.676 -0.647,0.958 -0.545,1.892 -1.072,-0.066 -0.377,-1.868 -1.664,-1.73 0.011,-0.073 0.053,-0.102 0.065,-0.162 h -1.497 c -0.958,2.017 -1.448,4.382 -2.563,6.98 -1.544,-0.084 -2.112,1.91 -2.244,2.694 v 0.15 c 2.747,0.88 0.832,-2.921 3.346,-2.257 -1.106,2.071 -2.221,4.119 -3.346,6.16 v 67.517 c 1.969,-3.286 7.89,-2.61 10.201,-5.591 -1.826,3.657 1.896,2.018 2.813,5.13 1.958,-1.066 1.461,-1.066 3.407,0 1.108,-2.149 4.371,-6.866 2.857,-11.907 m 21.987,-51.162 c 4.371,-6.1 8.999,-11.943 13.704,-17.714 h -13.704 z m 51.187,27.257 c 0,14.315 -6.753,24.324 -16.338,24.324 h -7.16 v -48.773 h 7.16 c 9.854,0 16.338,9.603 16.338,24.449 m 28.909,-0.132 c 0,-12.44 -4.19,-23.634 -12.021,-32.141 -8.25,-8.789 -18.368,-12.698 -33.221,-12.698 h -9.794 c -1.851,7.274 -4.364,13.889 -8.459,18.923 v 4.527 c -6.873,10.907 -10.081,25.496 -16.463,36.901 -0.623,-1.394 1.329,-2.299 -0.139,-2.287 v 32.017 h 36.604 c 25.659,0 43.493,-18.499 43.493,-45.242 m 9.236,45.242 h 27.814 v -34.981 c -1.886,-0.981 -3.807,-1.735 -6.333,-1.586 -1.156,1.318 -0.791,4.137 -1.689,5.682 -4.818,-3.209 -0.4,-7.801 -1.148,-13.064 -0.617,-4.303 -4.227,-9.243 -3.4,-13.056 1.759,-8.13 6.525,-17.11 10.775,-25.509 0.6,-1.191 1.204,-2.406 1.796,-3.622 v -3.945 h -27.814 v 90.081 z m 53.258,46.875 c 0.784,0.7 1.581,1.371 2.383,2.042 v -24.731 c -1.102,0.593 -2.323,1.025 -2.383,-1.143 -0.479,1.61 -3.053,1.09 -5.082,1.126 1.813,-2.683 4.717,-1.174 7.465,-0.941 v -2.471 c -1.897,-0.545 -3.724,-0.821 -4.646,1.161 -1.904,-0.737 -5.994,-0.899 -6.795,1.125 -5.49,1.053 -8.753,0.892 -11.919,3.945 v -2.238 c 7.172,-2.593 15.654,-3.904 23.359,-5.982 V 261.602 H 596.05 v 16.935 c 1.335,-0.011 2.539,0.126 3.317,0.683 -0.407,1.694 -1.778,2.496 -3.317,2.957 v 21.833 c 1.198,-1.454 2.335,-2.753 3.317,-3.783 3.825,-4.005 9.597,-7.543 15.876,-5.124 2.239,0.855 7.226,3.718 6.25,5.668 m 10.824,50.916 h 26.939 V 329.68 h -20.792 c -0.46,3.406 -2.873,5.209 -1.077,7.986 -1.515,2.287 -2.066,2.986 -2.263,5.676 -0.449,-0.312 -0.916,-0.594 -1.683,-0.569 0.418,3.232 3.167,5.574 -1.73,6.25 -0.196,1.281 0.421,1.76 0.606,2.664 m 63.44,-64.805 v -25.281 h -19.995 c -0.203,0.173 -0.509,0.22 -0.91,0.029 v -0.029 h -3.155 c -0.377,0.658 -0.844,1.226 -1.933,1.155 -0.067,-0.581 0.096,-0.929 0.377,-1.155 h -2.203 v 0.053 c 0.042,-0.005 0.065,-0.018 0.107,-0.024 0.097,0.425 0.03,0.671 -0.107,0.856 v 2.06 c 0.604,-0.192 0.574,-1.054 1.222,-1.245 1.167,-0.126 2.28,0.676 3.399,0.58 2.772,-0.228 7.227,-3.311 6.85,-1.125 -4.197,3.232 -8.006,6.86 -11.471,10.829 v 78.102 h 6.657 c 2.215,-9.758 4.238,-19.959 3.1,-27.077 0.277,-1.772 -1.52,-1.479 -1.706,-2.826 0.521,-5.938 0.259,-13.308 3.42,-17.601 2.886,-3.957 5.25,-9.632 10.225,-13.637 1.812,-1.461 3.879,-2.616 6.123,-3.664"
   id="path38"
   inkscape:connector-curvature="0"
   style="fill:#ae2c2b" />
	<path
   clip-path="url(#SVGID_6_)"
   d="m 366.359,299.781 c -0.815,-1.395 -1.858,1.408 -2.739,2.08 0.539,0.39 1.456,-0.695 2.739,0 -0.647,1.415 -1.283,2.832 -2.739,3.435 -0.42,1.124 1.109,0.267 0.683,1.381 -0.707,0.684 -0.683,-0.129 -1.061,-0.697 -0.857,1.211 -1.702,2.41 -3.411,2.757 -0.311,1.121 1.115,0.481 1.373,1.034 -0.348,1.15 -0.947,2.051 -2.422,2.053 -2.068,3.114 -4.424,5.91 -7.564,7.933 -0.989,2.225 -3.776,2.665 -4.49,5.17 -1.085,-0.158 -1.343,0.511 -2.056,0.705 -4.669,4.948 -10.837,8.445 -15.506,13.425 -0.648,-0.259 -0.24,-1.053 -1.02,-0.349 -1.246,0.45 0.414,1.646 -1.385,1.378 -0.161,0.847 -2.037,3.478 -3.8,2.761 -1.534,2.968 -4.621,5.432 -7.211,8.258 -0.623,-0.639 -1.018,0.419 -1.744,-0.352 -0.761,0.936 -1.654,4.783 -2.056,2.065 -1.073,0.792 -1.978,1.699 -2.769,2.782 0.401,0.875 1.348,-0.478 1.732,-0.708 0.534,1.004 -2.092,1.801 -2.41,3.093 -1.145,-0.713 1.025,-0.968 0.678,-2.032 -1.271,0.201 -2.026,1.166 -1.355,2.38 -0.695,0.482 -2.464,-0.156 -2.086,1.378 -0.785,0.103 -0.365,-0.984 -1.019,-1.021 -0.371,0.09 -0.246,0.672 -0.695,0.675 0.162,0.515 0.449,-0.129 1.025,0 -0.521,0.992 -1.061,1.927 -2.404,2.062 0.042,-0.462 0.054,-0.968 -0.341,-1.033 -0.732,0.707 -0.756,1.378 -2.422,1.734 0.311,1.316 1.391,-0.057 2.422,0 -0.121,1.151 -2.134,0.416 -1.721,2.053 -0.443,-0.099 -0.539,-0.571 -1.042,-0.674 -0.024,1.187 -1.883,0.737 -2.41,1.027 -1.337,0.768 -3.159,3.471 -3.783,3.448 -0.731,-0.011 -2.721,-3.229 -4.831,-6.211 -10.328,-14.739 -20.242,-33.184 -21.345,-58.554 -0.132,-3.41 0.252,-7.133 0,-9.639 2.29,-3.435 8.811,-12.782 12.396,-16.517 2.326,-2.43 5.82,-4.585 9.638,-3.111 1.361,0.519 4.382,2.254 3.789,3.441 4.507,3.983 9.548,6.839 9.309,16.187 -0.228,0.932 0.725,0.674 1.03,1.055 -0.143,2.26 -1.84,3.38 -0.689,5.149 -0.923,1.385 -1.258,1.798 -1.372,3.435 -0.288,-0.165 -0.552,-0.354 -1.026,-0.323 0.252,1.957 1.919,3.372 -1.049,3.784 -0.167,1.095 0.624,1.196 0.343,2.413 -0.606,0.301 -0.876,0.938 -2.051,0.681 0.792,1.027 -0.227,3.881 1.019,4.466 -0.138,1.019 -0.713,1.574 -1.708,1.756 -0.234,0.611 1.229,1.454 1.019,2.056 0,0 -0.689,0.006 -0.689,0 0.437,1.095 1.552,1.897 2.41,3.094 1.846,2.565 3.362,5.847 6.197,7.58 0.942,-1.383 3.309,-1.289 3.788,-3.091 0.63,0.486 2.027,1.99 1.739,-0.354 1.708,1.223 -0.036,4.34 2.067,5.525 0.18,-3.749 1.655,-6.141 3.094,-8.634 1.18,0.093 0.971,1.541 1.72,2.08 1.067,-1.027 3.549,0.288 4.484,-1.732 0.407,-0.929 0.156,-2.638 0.329,-3.79 1.265,-7.683 5.269,-19.787 4.148,-26.857 0.15,-1.088 -0.929,-0.923 -1.037,-1.73 0.312,-3.596 0.156,-8.068 2.074,-10.67 1.751,-2.409 3.177,-5.844 6.205,-8.274 2.613,-2.125 6.005,-3.189 9.98,-4.82 2.775,-1.132 5.208,-2.535 7.57,-2.058 2.895,-1.508 6.066,-1.161 9.639,-2.419 2.068,1.486 1.481,5.661 2.763,7.915 1.205,-0.162 0.971,-1.771 2.056,-2.065 0.725,0.102 0.09,1.516 1.037,1.385 0.066,9.992 3.824,22.359 -1.037,30.646 m -1.721,28.94 c 0.63,0.764 -2.295,2.727 -3.098,2.081 0.527,-1.221 2.463,-1.001 3.098,-2.081 m 0,2.754 c 0.546,1.226 -1.168,0.2 -1.018,1.036 -1.312,-0.32 -0.264,-1.385 1.018,-1.036 m -3.782,3.096 c 0.456,-1.067 -0.083,-0.975 0,-2.413 1.211,-0.263 1.325,0.54 2.386,0.354 0.917,1.217 -0.808,2.215 -2.386,2.059 m -1.024,-5.147 c 0.582,-0.093 0.875,0.573 1.025,0 0.852,0.03 0.108,1.154 0,1.378 -0.51,-0.319 -1.104,-0.542 -1.025,-1.378 m -0.696,2.051 c 0.108,0.551 -0.329,0.581 -0.354,1.036 h -0.677 v -1.036 z m -1.031,5.85 c 0.156,-0.416 0.444,-0.707 1.031,-0.698 -1.169,-1.031 -1.361,1.853 -3.093,1.376 -0.324,-1.438 -0.797,-0.74 -1.384,-2.057 -0.606,0.54 0.299,1.445 -1.031,1.706 0.485,0.71 1.384,-0.516 1.031,1.403 -2.015,0.031 -2.704,1.426 -4.124,2.064 -0.66,-0.525 0.353,-1.196 -1.043,-1.385 -0.336,0.581 -1.127,0.705 -1.373,1.385 -0.12,-1.607 -2.949,-0.516 -2.758,-2.413 0.384,0.063 0.618,-0.069 0.678,-0.345 0.347,1.088 1.301,0.566 2.08,1.723 0.665,-0.509 1.798,-0.512 2.044,-1.378 -1.037,-0.026 -0.444,-0.768 -1.361,-1.382 0.714,-0.677 1.78,-0.962 2.769,-1.379 -0.083,0.963 -1.036,1.056 -1.738,1.379 1.655,1.061 2.206,-1.921 4.142,-1.726 0.491,-0.294 0.731,-0.872 0.684,-1.712 0.803,-0.099 1.312,0.063 1.714,0.351 -0.378,-0.768 -0.378,-1.918 -1.373,-2.08 0.665,-1.807 1.822,-2.346 3.782,-3.437 -0.191,0.988 -0.827,1.471 -1.03,2.408 -1.829,-1.192 0.545,1.73 -1.709,0.346 -0.048,0.616 0.408,0.716 0.33,1.388 h 1.379 c 0.108,0.992 -0.768,1.052 -0.672,2.055 1.318,0.196 0.791,-1.482 1.702,-1.731 0.57,-0.041 0.69,2.271 -0.329,1.731 0.827,1.385 1.546,0.067 2.751,0 -0.677,1.152 -1.618,2.058 -3.099,2.408 m -2.416,1.037 c 1.187,0.889 -1.768,0.853 0,0 m -7.228,11.362 c -1.073,0.06 -0.978,-1.089 -2.422,-0.672 1.643,-1.45 3.453,-3.957 5.532,-4.499 0.582,-0.154 1.343,1.022 2.404,0 -1.102,2.63 -5.245,2.345 -5.514,5.171 m 2.074,-0.672 c -1.14,-0.348 0.365,-0.681 0.335,-1.061 1.002,0.224 -0.528,0.546 -0.335,1.061 m -4.838,2.405 c 0.09,-1.19 1.019,-1.508 2.074,-1.732 0.168,1.446 -1.163,1.353 -2.074,1.732 m 0,-1.733 h -0.683 v -0.672 h 0.683 z m -3.093,3.443 c 0.198,-0.297 0.408,-0.61 0,-0.681 0.965,-0.092 0.57,-1.924 0,-1.03 -0.449,-0.285 1.6,-2.302 2.41,-1.406 -1.001,0.836 -0.821,2.884 -2.41,3.117 m 1.728,-11.704 c 0.107,1.095 -1.001,-0.869 -1.049,0.354 -1.187,-0.894 2.008,-3.788 2.079,-1.378 -1.625,-0.357 -1.421,0.684 -1.03,1.024 m 5.16,-6.188 c -0.156,0.932 -1.086,0 -0.69,-0.704 0.372,0.087 0.228,0.695 0.69,0.704 m 3.8,-6.201 c 1.3,-0.518 0.042,1.535 1.367,1.025 -0.121,0.446 -0.606,0.543 -0.684,1.03 -0.504,-0.416 -0.653,-1.182 -0.683,-2.055 m -1.049,3.437 c 0.264,-0.102 1.672,-0.577 2.416,0 v 1.053 c -0.408,0.61 -2.248,-0.192 -1.733,1.354 -0.815,-0.903 -2.218,0.894 -2.391,-0.68 0.713,0.68 1.516,-0.506 2.391,-0.674 -0.281,-0.315 -0.192,-0.959 -0.683,-1.053 m -7.571,3.782 c 1.367,-1.504 3.405,-4.166 5.161,-4.136 0.474,-0.105 0.294,-0.842 0.33,-1.355 0.635,-0.062 0.737,0.417 1.408,0.327 -0.959,2.407 -4.231,2.438 -5.172,4.816 0.407,0.258 1.408,0.325 2.403,0 0.108,0.896 -0.725,0.894 -1.378,1.032 -0.174,0.73 0.485,0.665 1.037,0.674 -0.168,0.317 -0.312,0.635 -0.69,0.71 h -0.689 c 0.827,-0.458 -0.611,-1.037 0.342,-1.384 0.252,-0.931 -1.613,0.248 -1.385,-0.685 -0.246,2.281 -4.202,1.831 -5.497,4.496 -0.539,-0.603 3.513,-5.167 4.13,-3.465 0.438,-0.068 0.438,-1.021 0,-1.03 m -4.831,4.497 c -0.743,1.541 -2.284,2.281 -3.429,3.416 -0.766,-1.672 2.116,-2.673 3.429,-3.416 m 2.763,5.143 c -2.847,0.035 -4.004,4.63 -6.552,2.763 -0.851,2.575 3.375,1.088 4.149,1.028 -0.042,1.349 -1.685,1.088 -1.727,2.416 -0.947,-0.33 -2.385,-0.162 -2.062,-1.713 -0.911,0.321 -2.517,0.198 -2.751,-1.027 1.379,-0.061 0.923,-1.447 2.751,-1.732 -1.576,-0.998 1.145,-1.702 -0.36,-2.086 0.486,-1.376 3.609,-0.06 3.1,-2.406 0.797,-0.33 1.594,-0.701 2.061,-1.357 1.541,0.162 -0.629,0.716 0.354,1.708 0.918,0.102 1.127,-0.479 1.037,-1.378 0.594,0.089 0.774,0.602 0.678,1.378 1,-0.964 2.427,-1.483 3.446,-2.406 0.977,-0.061 1.001,0.86 1.043,1.726 -1.109,-0.287 -0.701,0.875 -1.372,1.031 0.167,0.265 0.359,0.575 0.329,1.031 1.445,-0.968 2.29,-2.536 4.49,-2.76 -1.355,1.863 -3.375,3.05 -5.521,4.135 -0.527,-1.219 1.181,-0.212 1.031,-1.028 -0.665,-0.377 -1.906,0.172 -2.056,-1.378 -0.863,-0.057 -1.091,0.522 -1.39,1.031 0.527,0.734 0.845,-0.255 1.732,0.347 -0.378,1.355 -1.349,2.092 -2.763,2.413 -0.168,-1.091 1.198,-0.93 0.353,-1.736 m -2.403,3.119 c -0.648,-1.579 1.222,-0.608 1.366,-1.385 0.871,0.423 -0.365,1.67 -1.366,1.385 m 1.012,3.765 c -0.874,0.608 -1.33,1.663 -2.739,1.735 1.139,-1.005 1.361,-2.029 1.367,-3.449 0.659,0.157 0.036,1.579 1.372,1.037 -0.203,0.312 -0.406,0.608 0,0.677 m -5.161,2.428 c -0.287,-0.414 -0.455,-0.929 -0.341,-1.729 -1.876,-0.058 -1.906,1.414 -1.36,2.437 0.137,1.067 -1.589,0.231 -1.721,1.025 -0.725,-2.407 2.775,-4.999 4.471,-4.16 0.228,0.926 -0.724,0.671 -1.049,1.049 0.42,1.034 1.307,-0.507 1.721,0.33 -0.515,0.41 -0.827,1.017 -1.721,1.048 m -2.391,-4.818 c -0.809,0.774 0.611,1.101 0.33,2.39 h -1.361 c 0.911,-0.881 -0.438,-1.031 -0.354,-2.065 0.599,0.06 0.726,-0.415 1.385,-0.325 m -2.768,0.676 c 0.102,-1.758 1.265,-3.879 4.135,-5.17 0.33,1.279 -3.074,1.765 -2.751,4.117 -0.467,0.377 -1.043,0.578 -1.384,1.053 m -0.684,6.551 c 0.119,-0.92 1.827,-1.606 1.708,0 -0.838,0.036 -1.062,0.65 -1.708,0 m 0.335,-4.487 h 1.037 c -0.12,0.443 -0.618,0.545 -0.689,1.028 -0.42,-0.044 -0.3,-0.611 -0.348,-1.028 m -0.335,-7.585 c 0.73,-0.638 1.396,-1.349 2.421,-1.705 -0.395,1.187 -1.192,2.319 -2.421,1.705 m -0.702,9.663 c -0.132,-0.668 1.571,-0.507 1.037,0.354 h -0.683 c 0.06,-0.312 -0.144,-0.352 -0.354,-0.354 m -1.361,-0.354 c 0.294,-0.511 0.27,-1.34 1.361,-1.025 0.108,0.902 -0.479,1.124 -1.361,1.025 m 0.342,5.176 c -0.875,-0.03 -1.78,-0.061 -1.727,-1.034 0.804,0.099 1.469,0.746 1.727,-0.345 -1.396,0 -0.6,-0.797 -1.037,-1.711 0.216,-0.478 0.738,-0.639 1.385,-0.701 0.023,0.581 -1.139,2.185 0.33,2.056 0.263,1.061 -0.936,0.67 -0.678,1.735 m -2.08,2.058 c -0.599,0.123 -0.012,-1.322 0.701,-1.027 0.174,0.767 -0.665,0.507 -0.701,1.027 m -1.025,-1.027 c -0.084,-0.582 0.593,-0.896 0,-1.031 0.06,-0.417 0.63,-0.288 1.025,-0.357 -0.144,0.654 -0.126,1.481 -1.025,1.388 m 3.105,-9.641 c 0.605,0.866 -0.641,2.793 -2.08,2.739 -0.084,-1.682 1.601,-1.61 2.08,-2.739 m 0.348,-4.821 c 0.629,1.196 -0.276,1.131 -0.69,2.06 -0.341,-0.003 -0.287,-0.413 -0.353,-0.704 -0.294,-0.039 -0.33,0.135 -0.342,0.35 -0.528,-0.539 1.624,-1.32 1.715,-2.408 0.587,0.227 0.209,0.772 -0.33,0.702 m 1.373,4.467 c -0.156,0.425 -0.456,0.707 -1.043,0.683 0.155,-0.396 0.438,-0.71 1.043,-0.683 m -0.348,-1.703 c -1.325,1.897 -2.434,0.807 0,0 m -8.254,10.991 c 0.497,-1.512 -0.294,-2.5 1.025,-3.414 0.468,0.099 0.275,0.845 0.329,1.354 1.403,0.251 0.852,-1.445 2.074,-1.354 0.228,-0.93 -0.719,-0.692 -1.042,-1.025 0.755,-0.312 0.773,-1.337 1.726,-1.399 0.066,0.626 -0.42,0.726 -0.336,1.399 1.157,0 1.54,-1.849 2.763,-0.707 -0.107,0.422 -0.695,0.354 -0.695,0 -0.623,0.072 0.294,0.521 0,1.031 -0.335,0.581 -1.642,0.8 -2.416,1.378 -1.276,0.938 -2.241,2.601 -3.428,2.737 m 2.061,24.824 c 0.282,-0.513 0.258,-1.35 1.367,-1.055 -0.527,0.263 -0.503,1.121 -1.367,1.055 m 1.008,-21.711 h -0.683 c 0.083,-0.288 -0.108,-0.323 -0.325,-0.348 -0.148,-0.679 1.553,-0.489 1.008,0.348 m -5.49,-4.816 c 0.575,-0.419 -1.57,1.96 -2.398,2.41 -0.57,0.41 1.552,-1.987 2.398,-2.41 m -0.353,-2.062 c -0.852,0.65 0.88,-0.927 1.043,-1.382 1.041,0.518 -0.781,1.032 -1.043,1.382 m 2.415,2.062 c -0.3,0.51 -0.503,1.091 -1.372,1.021 0.304,-0.505 0.508,-1.086 1.372,-1.021 m 4.824,-9.992 c 0.444,0.033 0.019,2.056 -1.037,1.731 -0.173,-1.088 0.924,-0.901 1.037,-1.731 m -0.353,4.121 c -0.012,0.573 -3.872,3.783 -5.515,5.167 1.314,-1.634 2.824,-3.947 5.515,-5.167 m -4.112,0 c 0.072,-0.362 0.689,-0.23 0.689,-0.677 1.121,0.728 -0.599,1.446 -0.689,2.056 -0.48,-0.101 -0.294,-0.845 -0.36,-1.379 0.294,-0.066 0.33,0.146 0.36,0.351 0.372,-0.066 0.181,-0.351 0,-0.351 m -5.857,9.308 c -0.365,0.677 -0.881,1.214 -1.402,1.736 -0.611,-0.324 0.635,-1.646 1.402,-1.736 m 0,-2.058 v -1.034 c 0.989,-0.504 0.989,1.519 0,1.034 m -0.365,-1.735 c 0.162,-0.42 0.443,-0.705 1.043,-0.678 -0.144,0.426 -0.444,0.686 -1.043,0.678 m 3.105,6.2 c -0.438,-0.476 -1.667,-0.131 -1.703,-1.027 -0.911,1.409 -2.463,2.146 -3.453,3.438 -1.162,-1.162 2.009,-0.962 1.374,-2.764 1.744,-1.094 3.17,-2.563 4.477,-4.111 1.199,0.778 -1.079,0.965 -1.037,1.702 0.408,0.491 1.636,0.479 0.684,1.388 -1.361,0.06 0.119,-0.52 -0.684,-1.031 -1.097,0.135 -0.677,1.481 0,1.736 1.085,0.152 0.923,-0.937 1.727,-1.06 -0.252,-0.8 -0.804,-2.162 0.701,-2.056 -0.174,0.708 0.209,0.896 0.324,1.379 0.413,-0.51 1.444,-0.393 1.396,-1.379 0.564,-0.072 0.887,0.6 1.019,0 1.001,0.288 -0.455,0.869 0,1.728 -1.954,1.026 -3.603,0.808 -4.825,2.057 m 1.715,1.385 c -0.875,-0.072 0.486,-0.581 0,-1.385 h 1.043 c 0.305,1.119 -1.127,0.479 -1.043,1.385 m -3.094,0.699 c 0.317,-0.636 0.779,-1.346 1.379,-0.699 -0.221,0.45 -0.731,0.639 -1.379,0.699 m -0.323,-1.379 c -0.359,-0.024 -0.281,-0.42 -0.359,-0.705 0.456,-0.413 0.533,-0.129 1.037,0 -0.079,0.386 -0.678,0.23 -0.678,0.705 m -2.08,1.705 c 0.359,-0.32 0.108,-1.28 1.042,-1.025 0.038,0.761 -0.299,1.09 -1.042,1.025 m -1.374,-2.41 c 0.18,0.511 -1.348,0.864 -0.347,1.028 -0.815,1.347 -1.091,-1.64 0.347,-1.028 m -2.42,3.088 c -0.923,-0.966 1.175,-1.097 1.727,-0.327 -0.116,1.16 -1.494,-0.902 -1.727,0.327 m 2.42,-7.553 c 1.044,0.32 -0.407,0.929 -0.347,1.357 -1.072,-0.326 0.157,-1.135 0.347,-1.357 m -1.712,2.058 c 0.485,-0.611 1.42,0.313 1.713,-1.027 0.403,1.443 -1.821,3.219 -3.44,3.788 0.557,-0.93 1.337,-1.643 2.392,-2.084 -0.144,-0.291 -0.301,-0.613 -0.665,-0.677 m -2.765,3.792 c 0.15,-0.422 0.437,-0.71 1.037,-0.68 -0.162,0.414 -0.444,0.704 -1.037,0.68 m -1.39,-0.357 c -0.552,-0.474 1.066,-1.675 2.061,-1.698 -0.599,0.64 -1.444,1.056 -2.061,1.698 m -2.746,4.499 c -0.042,-0.998 1.835,-1.828 1.019,-2.439 1.163,-1.121 1.085,3.569 -1.019,2.439 m -8.271,-2.439 h -0.684 v -0.678 h 0.684 z m -25.475,-98.814 c 0.713,-0.162 0.887,0.201 1.367,0.324 -0.42,0.713 -1.325,0.962 -2.074,1.382 -0.247,-1.062 0.94,-0.669 0.707,-1.706 m 9.302,-4.843 c 6.144,-2.221 13.882,-2.862 19.607,-5.5 0.42,0.291 0.941,0.453 1.726,0.33 0.414,-0.039 0.3,-0.614 0.348,-1.001 1.534,0.743 4.328,0.74 4.831,-1.406 1.511,0.279 2.068,-0.458 3.429,-0.329 v 1.028 h 1.732 c 1.037,-0.225 -0.329,-0.741 0,-1.379 0.797,-0.123 1.295,-0.549 2.398,-0.354 -0.174,0.285 -0.342,0.549 -0.342,1.034 2.955,-1.13 4.094,-2.032 7.241,-2.742 0.258,1.037 -1.181,0.42 -0.671,1.708 1.055,0.387 0.809,-0.542 1.349,-0.701 0.707,-0.072 1.378,0.414 2.068,0.354 1.678,-0.135 4.375,-1.996 4.153,-0.681 -5.706,4.4 -10.291,9.927 -13.798,16.511 -4.07,-1.253 -6.222,-5.496 -10.682,-5.844 -1.193,-0.096 -1.726,0.863 -2.727,-0.327 -0.672,1.058 -2.673,1.445 -3.117,0 -0.306,0.198 -0.605,0.393 -0.689,0 -1.025,0.198 0.347,0.738 0,1.382 -1.193,-0.411 -2.057,-1.154 -2.057,-2.764 -0.701,0.327 -2.031,1.421 -2.079,-0.347 -0.282,0.962 -1.846,0.647 -3.088,0.674 1.397,-2.062 3.879,-0.03 5.857,-0.674 0.684,1.385 2.476,1.666 4.118,2.056 0.168,-1.316 -1.175,-1.094 -0.684,-2.736 -1.468,-0.45 -0.413,1.636 -1.708,1.354 -0.102,-0.776 0.078,-1.292 0.677,-1.354 -0.479,-0.804 -1.42,-1.116 -2.073,-1.733 -0.947,0.962 0.791,0.962 1.396,1.376 -1.528,0.911 -4.759,-2.014 -5.868,0.357 -1.157,-0.45 -3.633,-0.549 -4.124,0.68 -3.333,0.638 -5.305,0.546 -7.223,2.404 z m 12.036,-32.027 h -2.404 c 0.073,-1.001 2.71,-1.576 2.404,0 m 2.062,-1.385 c 1.079,0.546 -1.018,1.481 -1.378,0.678 -0.227,-0.929 1.636,0.261 1.378,-0.678 m 6.564,1.736 c -1.079,1.252 -1.175,-1.058 0,0 m 2.397,-1.379 c -0.048,0.74 -1.462,0.126 -2.061,0.321 0.474,-0.834 1.174,-0.583 2.061,-0.321 m 3.454,21.004 c -0.096,0.362 -0.695,0.23 -0.707,0.674 -0.336,0 -0.252,-0.407 -0.342,-0.674 0.449,-0.414 0.545,-0.15 1.049,0 m 0,3.44 c 0.126,-0.452 0.606,-0.542 0.678,-1.028 0.868,0.129 0.04,1.319 -0.678,1.028 m 2.738,-23.77 c -0.197,0.708 -1.594,0.225 -1.702,1.034 -0.719,-0.099 -0.671,-0.911 -1.391,-1.034 0.839,-1.606 2.284,0.318 3.093,0 m 0,20.68 c 0.618,0.072 0.798,0.591 0.69,1.382 -0.27,-0.189 -0.552,-0.375 -1.037,-0.375 0.192,-0.26 0.366,-0.545 0.347,-1.007 m -1.365,-2.408 c -0.072,-0.293 0.138,-0.323 0.341,-0.353 h 0.678 v 1.034 h -1.019 c 0.215,-0.296 0.419,-0.61 0,-0.681 m 2.409,-20.332 c -0.744,0.294 -0.762,1.289 -1.715,1.385 0.27,-0.766 0.671,-1.385 1.715,-1.385 m 0.696,18.952 c 1.151,0.138 0.767,2.511 -0.695,2.062 0.209,-0.297 0.419,-0.611 0,-0.681 0.136,-0.572 1.077,-0.293 0.695,-1.381 m -0.354,-17.566 c 0.708,0.582 0.672,-0.261 1.373,0.321 0.108,0.611 -1.936,0.638 -1.373,-0.321 m 1.727,13.751 c 1.114,0.608 -0.852,0.959 -1.373,1.049 -0.559,-1.349 1.48,-0.124 1.373,-1.049 m 1.708,6.904 v 1.022 c -0.737,0.06 -1.073,-0.255 -1.014,-1.022 z m 0.706,-2.762 c -0.347,0.476 -0.923,0.701 -1.373,1.054 -0.138,0.804 1.553,-0.191 1.026,1.028 -1.086,-0.035 -1.895,0.681 -3.441,1.029 0.288,-1.211 1.373,-1.631 2.415,-2.057 -0.515,-0.833 0.109,-1.507 -0.348,-1.729 0.552,-1.087 1.081,0.707 1.721,0.675 m -0.706,-4.467 h 0.707 c 0.096,0.552 -0.336,0.582 -0.347,1.031 h -0.702 c -0.079,-0.552 0.324,-0.583 0.342,-1.031 m 3.459,-16.87 c -0.708,1.259 -2.057,0.267 -3.459,0.33 0.077,-1.286 3.092,-1.445 3.459,-0.33 m 1.025,14.808 c -0.294,0.519 -1.109,0.492 -1.721,0.677 0.047,-0.733 0.868,-0.733 1.721,-0.677 m 2.774,1.035 c 0.737,0.03 0.138,1.448 0.318,2.059 -1.625,-0.519 -2.29,-0.162 -4.118,0.342 -0.438,-0.861 1.366,-1.088 0.341,-1.373 1.164,-1.125 2.428,-0.8 3.459,-1.028 m -1.402,-1.384 c 0.815,0.191 0.216,1.615 -0.329,0.68 0.059,-0.264 0.34,-0.331 0.329,-0.68 m 0.695,9.29 v 0.699 c -1.667,0.35 -0.629,-1.834 0,-0.699 m -1.714,-3.088 c 0.24,-1.031 -0.353,-1.255 -0.353,-2.083 0.773,-0.137 1.875,-0.779 2.068,0.372 -0.325,0.78 -0.696,1.58 -1.715,1.711 m -0.696,0.676 c -1.049,-0.225 -0.666,-0.225 -1.703,0 -0.478,-1.229 2.29,-1.64 1.703,0 m -2.74,2.082 v -0.698 c 0.678,-0.107 1.073,0.063 1.037,0.698 z m 0.678,0.68 c 0.192,0.77 -0.665,0.483 -0.678,1.022 -0.881,-0.128 -0.023,-1.313 0.678,-1.022 m -0.678,-4.818 c -0.119,-1.256 0.037,-2.248 0.342,-3.093 0.792,-0.18 1.181,3 -0.342,3.093 m 0.678,1.38 c 0.078,0.573 -0.312,0.579 -0.336,1.028 h -0.707 c -0.09,-0.551 0.341,-0.605 0.365,-1.028 z m -1.043,4.815 h 1.402 c -0.048,1.127 -0.449,1.864 -1.402,2.065 0.162,-0.297 0.311,-0.615 0.707,-0.681 0.414,-1.118 -1.127,-0.257 -0.707,-1.384 m 2.08,-0.678 c -0.833,-1.28 1.001,-0.764 2.062,-1.049 -0.576,1.286 0.203,0.546 0.348,1.727 -0.408,0.413 -1.223,0.383 -2.068,0.329 0.323,-0.353 0.677,-0.683 1.025,-1.007 0.239,-0.569 -1.606,-0.569 -1.367,0 m 7.918,0.323 c 1.013,-0.483 1.013,1.546 0,1.058 z m -3.458,-1.702 c 0.563,-0.826 2.391,-0.383 2.421,-1.729 h 1.037 c -0.228,1.576 -2.482,1.895 -3.458,1.729 m 1.743,2.386 c -0.305,0.537 -0.521,1.112 -1.372,1.055 -0.108,-0.906 0.707,-0.899 1.372,-1.055 m -1.743,-0.684 c 0.719,-1.022 2.193,-1.51 3.794,-1.022 -0.078,0.443 -1.019,0.45 -1.043,0 -0.36,0.894 -1.853,0.669 -2.751,1.022 m 6.563,0.684 c -1.241,-0.003 -1.091,-1.421 -1.037,-2.733 1.194,0.063 0.641,1.894 1.037,2.733 m 1.019,0 c -0.653,-0.036 -0.24,-1.127 -1.019,-1.007 0.557,-1.603 2.506,0.354 1.019,1.007 m -3.099,-7.561 c 0.096,-0.372 0.701,-0.243 0.701,-0.668 0.923,0.293 -0.28,1.507 -0.701,0.668 m -3.447,-4.133 c 0.306,0.413 0.462,0.932 0.354,1.732 1.355,-0.578 1.625,-0.069 2.404,-1.034 0.809,0.099 0.797,0.911 0.353,1.379 0.198,-0.5 1.325,-0.063 1.379,-0.702 -0.995,-0.027 -0.192,-1.888 -1.379,-1.699 0.75,-0.426 1.691,-1.666 2.416,-1.058 -0.15,0.899 -1.037,1.058 -1.037,2.08 0.036,0.683 0.755,0.297 0.971,-0.093 -0.354,1.879 -3.854,3.087 -5.461,4.565 0.582,1.34 2.859,-1.64 2.422,0.677 1.001,-0.258 1.978,-0.545 2.41,-1.379 0.396,0.06 0.299,0.633 0.353,1.055 0.852,-0.839 3.687,-1.124 4.484,0 -1.025,1.28 -2.967,0.066 -4.142,0.678 1.157,1.243 2.865,1.951 3.429,3.788 -0.288,0.282 -0.768,0.381 -1.373,0.348 0.138,-0.45 0.612,-0.546 0.69,-1.029 -1.607,0.135 -2.38,0.543 -2.398,-1.381 -1.972,-0.348 -1.457,1.771 -2.764,2.062 0.792,-1.091 -0.131,-2.122 1.037,-2.41 -0.186,-0.291 -0.365,-0.551 -0.348,-1.028 -0.725,0.096 -2.049,0.968 -1.726,-0.704 -0.527,1.438 -3.212,0.704 -4.135,1.732 -0.324,-1.507 0.772,-1.537 1.396,-2.056 -1.085,-0.485 -0.449,-1.28 0,-2.058 h 1.372 c -0.113,-0.573 0.325,-0.612 0.325,-1.059 -1.092,-0.422 -0.247,1.124 -1.361,0.678 0.018,-0.837 0.965,-2.827 -1.385,-2.386 0.048,-0.761 0.863,-0.761 1.714,-0.698 m -0.665,-15.49 c 0.605,-0.06 0.707,0.419 1.372,0.327 -0.071,0.996 -1.654,0.833 -1.372,-0.327 m 3.423,15.165 c -0.42,0.965 -1.403,1.121 -2.404,0.672 0.048,-1.348 1.547,-1.025 2.404,-0.672 m 5.174,-1.387 c -0.534,0.612 -0.564,1.712 -2.056,1.388 0.191,-0.938 0.94,-1.351 2.056,-1.388 m 0,-13.103 h 0.689 c 0.096,0.555 -0.323,0.609 -0.347,1.034 h -0.69 c -0.09,-0.549 0.33,-0.585 0.348,-1.034 m 3.794,20.662 c 0.132,1.157 -1.493,0.578 -2.056,1.052 0.018,0.869 1.265,0.545 1.721,1.028 0.011,1.037 -1.757,0.324 -1.721,1.381 -0.953,-0.734 0.911,-0.998 0,-2.082 -0.983,-0.039 -0.821,1.312 -1.738,0.353 0.568,-1.285 2.271,-1.411 3.794,-1.732 m 5.154,-23.749 c 1.63,0.528 0.455,1.708 0,0 m 4.491,-1.729 c -0.612,0.902 -1.972,0.425 -2.764,0.354 0.191,-1.215 2.001,-0.573 2.764,-0.354 m 22.027,44.431 c 1.295,1.049 -1.048,1.154 0,0 m 1.385,4.459 c 0.617,0.096 0.779,0.608 0.689,1.412 -0.611,-0.095 -0.773,-0.604 -0.689,-1.412 m -96.429,-8.606 c 0.738,-0.546 2.794,-1.038 3.771,-0.33 -0.731,1.285 -2.032,-0.03 -3.771,0.33 m -80.95,25.154 h -1.037 c 0.156,0.641 1.655,2.725 -0.318,2.407 0.666,3.365 1.271,7.292 -0.365,10.343 0.054,0.969 0.623,1.438 0.683,2.409 -4.544,0.123 -5.725,-4.756 -10.322,-3.439 -1.918,-1.644 -3.89,-3.219 -6.875,-3.819 -1.595,1.735 -1.277,1.22 -0.708,-1.001 -1.864,1.223 -3.926,-1.477 -6.539,-0.35 -1.265,-0.804 -2.11,-2.02 -2.422,-3.792 -0.899,-0.093 0.324,1.924 -1.031,1.379 -0.647,-1.729 0.78,-1.831 1.727,-2.754 -0.654,-0.519 -2.104,1.093 -3.441,1.025 -0.444,-1.379 -0.36,-3.312 -2.062,-3.435 9.537,-2.859 20.038,-4.76 30.294,-6.878 -0.108,1.927 0.611,3.054 0.36,5.17 1.367,-0.45 0.947,-2.146 1.367,-2.764 0.976,0.06 0.941,1.127 1.726,1.358 -0.467,1.689 -2.337,2.565 -1.037,4.141 m -14.469,12.749 c -1.248,1.213 -1.672,-1.315 0,0 m -3.435,-1.709 c 0.923,-1.348 0.971,1.062 2.061,0.679 -0.497,0.929 -1.485,-0.543 -2.061,-0.679 m -4.819,12.375 c -0.767,0.22 -0.492,-0.646 -1.049,-0.68 -0.091,-0.612 1.336,-0.027 1.049,0.68 m -5.85,2.435 c 1.067,-0.258 2.643,1.927 3.788,2.76 -1.116,0.291 -2.518,-2.111 -3.788,-2.76 m -10.683,-10.34 c 0.504,0.191 0.863,0.513 1.373,0.68 -0.21,0.858 -1.737,0.185 -1.373,-0.68 m -3.788,-2.083 c 0.827,-0.906 1.552,1.181 2.757,1.055 -0.808,0.895 -1.809,-0.936 -2.757,-1.055 m -58.55,-65.433 c -0.959,-0.644 0.659,-1.607 0.683,-2.41 -1.384,0.351 -1.767,2.341 -1.384,3.435 -1.211,0.069 -4.807,0.123 -3.094,2.436 -0.245,0.132 -0.796,-0.162 -1.018,0 -1.834,1.385 -3.567,7.874 -2.775,11.701 -1.655,-1.99 -1.175,1.336 -2.746,1.379 -0.072,-3.147 1.145,-7.739 3.441,-9.639 0.054,-0.617 -0.426,-0.738 -0.329,-1.388 2.679,-4.882 4.584,-10.555 8.949,-13.775 2.012,3.152 -0.48,5.622 -1.727,8.261 m -5.18,9.99 c -0.893,0.123 0.335,-1.93 -1.019,-1.355 0.582,-1.699 0.977,-3.629 2.074,-4.822 0.719,1.744 -1.319,3.702 -1.055,6.177 m -1.019,1.735 c 1.019,-2.289 -0.905,2.753 0,0 M 204.847,166.15 c 0.107,-0.455 0.617,-0.548 0.677,-1.03 0.863,0.134 0.037,1.324 -0.677,1.03 m -5.509,8.965 c 0.341,-0.576 3.609,-4.855 5.839,-5.88 -2.097,2.574 -3.381,3.891 -5.839,5.88 m -2.426,2.754 c 0.611,-0.537 0.719,-1.573 1.714,-1.729 -0.636,0.512 -0.51,1.792 -1.714,1.729 m -7.902,11.37 c -0.45,-0.095 -0.365,-0.697 0,-0.697 -0.036,-0.351 -0.45,-0.264 -0.701,-0.354 0.444,-1.064 0.713,-0.165 1.72,-0.678 0.042,0.965 -1.019,0.798 -1.019,1.729 m -2.781,6.202 c -0.653,-0.054 -0.228,-1.148 -1.013,-1.055 0.09,-0.771 0.905,-0.771 1.379,-0.324 0.03,0.615 -0.444,0.709 -0.366,1.379 m -2.397,2.763 c -0.305,-1.352 0.845,-1.247 1.025,-2.086 0.233,-0.069 -0.181,2.086 -1.025,2.086 m -13.446,24.776 c -1.031,-0.423 0.258,-1.319 0.354,-1.742 0.63,0.062 -0.288,1.317 -0.354,1.742 m 23.432,-44.43 c -0.99,-0.196 0.515,-0.54 0.335,-1.035 1.145,0.33 -0.382,0.677 -0.335,1.035 m 198.04,89.554 c -0.329,-3.785 -2.332,-7.322 -1.732,-9.99 -1.673,-5.328 -6.114,-8.514 -9.303,-12.407 -2.578,-3.174 -4.592,-6.537 -8.254,-8.602 1.624,-5.428 -2.344,-8.218 -2.757,-12.752 -0.558,-1.736 -2.105,-4.49 -2.458,-4.271 -0.923,-1.023 -2.638,-1.765 -3.734,-2.605 -0.055,0.39 0.042,0.969 -0.378,1.031 -5.155,1.571 -8.583,-2.152 -13.169,0.033 0.749,0.294 2.811,-0.77 3.555,0.318 -5.06,0.321 -7.949,2.832 -13.787,2.379 -0.665,0.546 0.605,1.475 -0.689,1.742 -0.108,-0.914 -0.893,-1.163 -1.715,-1.388 -0.234,0.861 1.667,1.286 0.696,1.733 -2.272,0 -2.23,0.227 -3.447,1.384 -0.971,-0.006 0.815,-0.938 -0.695,-0.701 -2.65,0.632 -7.403,-0.261 -8.608,1.729 1.966,0.384 6.438,-1.319 8.608,-0.68 -2.757,1.507 -7.643,1.678 -9.998,1.028 0.006,-0.573 0.97,-0.216 1.042,-0.702 -1.211,-1.028 -1.959,0.839 -3.11,0 0.527,1.029 -1.793,2.73 -2.74,1.029 0.995,0.092 1.756,-0.093 2.062,-0.675 -3.656,-0.225 -6.359,0.515 -9.297,1.022 -0.078,1.124 1.499,0.582 1.384,1.709 -2.942,0.737 -0.844,-1.862 -3.116,-1.353 -0.036,1.092 2.236,1.637 1.403,2.407 -1.133,-1.151 -2.23,-0.221 -4.154,-0.35 0.707,1.256 -0.193,1.537 -1.727,1.378 0.749,1.323 -1.151,1.154 -1.714,2.065 0.27,-1.199 0.977,-1.132 0,-2.065 0.599,0.096 2.038,-0.641 1.025,-1.028 -2.602,0.48 -3.519,1.001 -5.851,1.028 0.426,-0.806 -0.167,-0.767 0.684,-1.378 -0.995,-0.351 -2.194,-0.609 -2.751,0.68 0.845,-0.036 1.672,-0.036 1.726,0.698 -1.169,0.42 -2.649,0.939 -3.447,0 -0.108,-0.902 1.93,0.325 1.391,-1.028 -4.616,0.447 -7.918,1.349 -11.713,1.028 -1.336,-1.087 -2.505,-2.145 -4.813,-1.378 -2.313,-1.088 -3.866,-2.566 -6.563,-2.413 -0.696,0.803 -0.474,2.512 -1.019,3.444 -2.926,-1.933 -0.24,-4.724 -0.702,-7.909 -0.377,-2.632 -2.559,-5.623 -2.062,-7.928 1.067,-4.948 3.968,-10.406 6.54,-15.491 1.888,-3.723 3.752,-7.733 5.167,-11.366 1.75,-4.525 3.53,-11.467 5.508,-14.811 1.577,-2.689 5.533,-4.037 6.204,-7.253 -0.413,-0.036 -0.983,0.09 -1.037,-0.326 0.66,-1.065 0.977,-2.5 1.721,-3.465 -1.337,-2.053 0.641,-5.464 1.042,-7.907 -1.552,-5.808 -7.498,-7.222 -11.712,-10.342 0.348,-1.709 -1.073,-1.673 -1.043,-3.112 -0.174,-1.063 1.067,-0.767 0.689,-2.055 -1.774,-1.541 -4.196,-2.446 -4.129,-5.851 -2.686,-0.989 -4.13,-3.21 -6.186,-4.819 -5.288,-0.668 -6.846,-5.104 -12.414,-5.517 -1.907,1.312 -4.172,2.271 -5.503,4.139 h -1.025 c -1.684,2.766 -4.586,3.434 -7.229,4.821 -4.13,2.18 -8.434,5.419 -12.395,8.257 -7.44,5.359 -14.968,11.467 -21.028,17.569 -3.225,3.267 -6.69,6.423 -9.639,9.312 -4.052,3.984 -8.14,9.675 -12.06,13.104 0.06,1.954 1.402,-1.538 1.732,-0.354 -3.572,5.721 -9.674,10.789 -11.713,16.87 4.424,-6.138 9.231,-13.717 14.465,-17.901 -0.42,1.19 -3.046,2.002 -2.068,3.443 0.958,-1.097 1.798,-2.343 3.093,-3.11 -1.319,1.669 -2.536,3.434 -4.131,4.84 -0.965,-0.027 0.822,-0.953 -0.695,-0.705 -0.443,0.384 -1.684,1.733 -1.049,2.063 0.204,-0.483 0.569,-0.839 1.049,-1.028 -0.287,2.118 0.851,-0.225 1.049,0.698 -0.797,1.223 -1.624,0.392 -2.415,1.382 0.473,0.011 0.347,0.866 -0.354,0.674 -1.199,-0.087 0.875,-1.28 -0.336,-1.376 -3.045,3.953 -6.287,7.736 -8.608,12.399 2.728,-2.32 4.137,-5.949 6.528,-8.607 0.174,1.543 -1.205,1.543 -1.354,2.757 0.773,0.159 1.57,1.477 0.329,1.708 v -1.358 c -2.967,1.481 -2.871,3.951 -4.118,6.875 -1.001,-0.059 -1.342,1.326 -1.385,1.712 1.691,0.566 0.51,-1.747 2.039,-1.36 -2.488,4.726 -5.221,9.224 -7.565,14.107 -0.683,-0.192 -0.666,-1.026 -1.373,-0.348 0.09,1.217 -1.942,2.473 -0.329,3.111 0.474,-0.578 0.245,-2.797 1.354,-1.732 -0.911,1.507 -1.408,3.428 -2.391,4.843 -0.234,-1.736 0.683,-2.533 0,-3.791 -2.374,0 0.204,2.991 -1.025,3.791 -0.732,-0.093 0.509,-0.953 -0.708,-1.049 -1.216,3.375 -4.231,6.797 -4.471,9.986 0.24,-1.001 0.875,-1.289 1.384,-0.326 0.396,-1.34 0.216,-3.214 1.702,-3.438 -0.383,1.064 0.54,0.809 0.702,1.378 -0.533,0.585 -1.541,1.541 -1.025,2.06 1.193,1.255 -2.272,6.908 -1.049,8.613 0.09,-0.614 -0.33,-1.738 0.689,-1.385 0.576,2.827 3.609,5.17 2.068,7.227 0.132,-2.185 -2.235,-0.411 -1.708,0 -1.061,-0.513 -0.186,-1.032 -0.701,-1.73 -0.869,-0.417 -1.666,0.893 -2.752,-0.327 -0.965,-0.155 0.264,1.871 -0.683,1.73 -1.265,-1.238 -0.653,-2.308 -1.72,-3.81 0.294,-2.538 -0.462,-3.503 -0.348,-3.767 -1.157,3.153 1.594,8.575 2.404,9.288 2.637,1.736 5.484,3.24 7.912,5.164 0.611,-0.189 2.038,0.423 2.068,-0.345 -0.534,-0.033 -1.175,0.057 -1.025,-0.704 1.768,-0.132 5.191,0.063 4.813,-2.763 h 1.385 c 0.42,-3.247 4.945,-2.38 6.558,-4.466 -1.109,2.218 1.157,1.219 1.702,3.114 1.199,-0.641 0.893,-0.641 2.074,0 0.671,-1.292 2.644,-4.172 1.732,-7.226 1.84,-2.763 3.513,-5.686 6.204,-7.585 -1.157,0.096 -1.145,1.132 -1.828,-0.06 1.193,-0.906 2.116,-1.418 1.924,-2.758 0.462,-0.482 1.169,-0.839 1.63,-1.322 1.061,-3.953 3.962,-6.135 5.491,-9.638 -4.43,2.694 -6.761,7.457 -11.352,9.992 5.843,-13.91 14.817,-24.672 23.754,-35.471 1.696,-0.791 2.775,-3.811 4.478,-3.461 -1.343,7.613 -2.878,15.034 -6.881,19.984 v 2.755 c -4.179,6.621 -6.127,15.456 -9.999,22.391 -0.407,-0.905 1.061,-1.484 -0.342,-1.382 -0.383,1.763 -1.978,3.885 -1.036,5.848 -1.601,2.337 -2.926,6.488 -3.447,9.992 -0.168,1.178 -0.486,2.368 0,3.435 -0.456,0.707 -1.822,0.479 -2.051,1.384 0.534,0.351 1.385,0.321 0.678,1.049 -1.043,-0.449 -1.606,-1.379 -3.446,-1.049 -0.654,1.568 1.384,0.48 1.025,1.733 -1.451,0 -2.05,0.512 -3.093,-0.351 0.623,-0.198 1.426,-0.168 1.732,-0.684 -1.697,-1.18 -3.021,0.522 -4.142,1.035 -0.288,-0.294 -2.691,-0.936 -2.404,0.353 0.528,1.349 2.032,-0.905 2.056,0 0.755,0.795 -0.096,1.922 -1.366,1.705 -1.121,-0.035 -0.738,-1.546 -2.41,-1.03 -0.965,0.512 0.6,1.408 -0.36,1.726 -2.427,0.485 -2.835,-1.058 -4.118,-1.726 -1.738,0.225 -0.18,2.181 -1.366,2.409 -2.692,-0.971 -4.939,0.896 -7.595,1.031 0.354,0 0.437,0.602 0,0.699 -2.116,0.419 -4.562,2.157 -6.534,0.707 0.061,0.734 -0.293,1.067 -1.055,0.995 -1.546,-0.195 -4.615,0.839 -6.533,1.412 -0.57,-1.124 -2.02,-0.57 -2.752,0 -0.102,-0.513 -1.45,-1.502 -1.726,-0.708 0.348,0.009 0.432,0.612 0,0.708 -1.421,-0.513 -2.518,2.287 -4.825,2.056 0.06,-0.987 -1.157,-0.678 -0.69,-2.056 -2.289,-0.126 -2.829,-0.285 -5.161,0.68 -0.041,1.289 2.033,0.477 1.727,2.056 -1.097,-0.231 -2.434,2.311 -3.782,0.674 -0.054,0.42 0.054,0.998 -0.354,1.055 -6.294,1.001 -12.354,3.5 -18.606,3.087 -1.324,-0.069 -2.373,-0.926 -3.794,-0.348 -0.012,-0.461 0.155,-0.746 0.359,-1.028 -3.512,0.708 -5.664,-0.167 -8.619,-1.382 0.281,-0.386 0.461,-0.904 0.353,-1.711 -1.72,0.097 -1.132,-1.606 -2.073,-2.76 -0.971,-1.181 -2.506,-1.406 -2.74,-2.73 -0.149,-0.731 0.971,-4.373 1.373,-5.521 0.995,-2.958 2.452,-6.168 3.782,-9.318 1.307,-3.09 2.398,-6.302 3.782,-9.282 3.429,-7.351 8.704,-13.423 13.446,-18.602 1.258,-1.406 2.175,-3.237 3.44,-4.466 6.312,-6.288 12.384,-10.568 19.625,-15.861 3.668,-2.673 7.612,-5.041 11.371,-7.579 5.502,-3.755 10.754,-8.713 15.824,-12.402 4.16,-2.991 10.838,-5.778 9.321,-12.402 -2.451,-3.95 -9.788,-1.055 -12.75,0 -6.455,2.308 -12.881,6.615 -19.624,9.992 -6.762,3.402 -13.81,6.228 -19.972,8.961 -7.26,3.207 -13.781,7.484 -20.321,12.75 -5.562,4.433 -11.383,9.153 -16.19,14.458 -3.68,4.046 -6.923,8.856 -10.352,13.424 -6.276,8.482 -11.155,17.794 -14.805,27.918 -1.049,2.928 -2.368,6.587 -1.367,9.983 -0.372,0.419 -0.839,2.056 0,3.437 0.27,-1.537 1.133,1.673 1.72,2.063 -0.492,-2.416 -0.935,-2.988 -0.191,-6.202 0.329,-2.829 1.246,-4.564 1.564,-7.225 1.037,0.935 2.062,-0.231 3.105,-0.354 0.725,0.707 -0.672,1.762 -0.683,2.08 0,-0.093 0.647,0.237 0.683,0.684 0.072,0.928 -0.533,1.729 -0.683,2.76 -0.426,2.796 -0.18,6.296 -1.055,9.287 -0.534,-1.036 -1.062,-3.956 -2.374,-3.093 1.379,1.353 2.931,4.379 2.727,6.198 -0.533,-0.383 -0.701,-1.114 -1.72,-1.025 2.901,5.14 4.765,10.706 8.614,15.136 2.846,3.305 7.528,6.647 12.737,7.25 0.695,0.069 1.391,-0.126 2.08,0 17.958,3.314 37.56,-0.117 51.67,-3.459 -1.032,0.731 -2.56,0.899 -3.465,1.729 0.851,-0.059 1.672,-0.063 1.732,0.678 -1.522,1.31 -3.471,1.058 -4.825,1.052 -0.744,0.998 0.246,2.541 0.348,3.791 -1.823,0.588 -3.069,0.647 -4.472,1.028 -0.515,1.292 1.529,0.069 1.025,1.381 -0.246,1.455 -1.936,1.515 -1.384,3.769 h -1.709 c -0.372,1.501 1.283,1.181 2.068,1.731 0.725,0.543 1.306,1.602 2.074,2.06 2.656,1.67 7.427,2.88 9.279,4.489 0.977,0.836 2.398,1.289 2.757,2.409 0.827,-0.132 0.755,0.646 1.726,0.352 0.462,0.81 2.158,3.119 2.41,2.059 0.45,0.806 2.176,0.351 2.056,1.735 -0.743,0.219 -1.079,-0.988 -1.031,0.348 2.811,1.777 4.898,4.283 7.235,6.551 -0.264,0.07 -0.408,0.269 -0.33,0.679 1.265,-0.321 2.584,1.284 3.087,2.739 -0.599,-0.33 -2.439,-1.193 -2.757,-0.681 2.691,1.22 5.143,2.674 6.204,5.522 0.815,0.285 1.408,-0.703 1.642,0.162 -0.18,0.486 1.475,1.547 0.048,1.831 0.654,1.194 3.387,2.566 4.861,5.231 -0.724,-0.417 -1.348,-0.954 -2.074,-1.4 3.184,4.169 6.33,8.377 10.682,11.396 2.392,5.913 7.757,7.577 13.433,11.017 4.442,2.694 8.368,5.134 13.421,5.146 2.11,1.114 5.305,1.954 8.266,1.731 0.941,-0.072 4.364,-0.649 5.173,-1.03 1.834,-0.872 1.948,-3.378 3.807,-3.44 1.282,-6.327 6.269,-11.113 8.93,-15.513 0.72,-1.151 0.097,-2.701 0.348,-4.115 0.42,-2.432 1.037,-4.487 0.348,-7.247 2.368,-2.119 3.938,-3.219 5.52,-5.85 0.492,-0.843 1.565,-2.281 1.715,-2.764 1.187,-4.022 -1.739,-6.331 -1.715,-9.966 0,-2.73 0.144,-4.4 -0.341,-6.554 1.906,-1.571 1.301,-3.528 2.751,-5.516 -1.289,0.642 -0.869,-0.225 -1.385,-1.03 -0.089,-1.355 1.463,-1.064 1.385,-2.407 -0.408,-0.066 -0.989,0.058 -1.037,-0.354 0.06,-2.026 -0.036,-2.965 1.379,-4.142 -1.044,-2.383 1.66,-6.333 -0.342,-8.608 0.587,-2.158 2.236,-4.082 2.739,-6.204 -0.012,0.123 -0.665,-0.515 -0.671,-0.68 -0.054,-0.51 1.025,-1.726 1.025,-1.726 0.114,-0.426 -0.395,-0.84 -0.354,-1.032 0.941,-2.862 2.71,-5.458 4.838,-8.26 -0.126,-0.797 -0.558,-1.306 -0.354,-2.403 2.422,0.102 -0.708,-1.157 1.031,-1.388 1.378,-0.188 -0.371,1.199 1.391,1.031 1.043,-3.075 5.191,-2.505 6.869,-4.142 0.66,1.858 2.05,-1.001 2.775,0 0.234,1.064 -1.205,0.42 -0.707,1.739 1.498,-0.291 1.822,0.284 2.428,-1.035 1.043,1.58 5.322,-0.062 6.875,1.035 -0.516,2.142 -3.519,1.954 -4.819,2.403 0.257,1.444 -1.589,2.512 -2.41,1.732 0.545,-0.03 1.193,0.037 1.037,-0.704 -3.609,-0.033 -5.994,2.155 -9.111,4.37 -2.686,1.87 -6.51,6.015 -7.523,8.67 -0.263,0.65 -0.479,1.807 -0.588,2.446 -0.179,1.094 -1.228,2.281 -1.378,3.821 -0.12,1.097 0.078,1.901 0,3.084 h -1.372 c 0.977,2.344 -0.288,4.724 -0.342,6.902 -0.12,3.085 0.761,7.005 1.031,10.667 0.563,7.963 1.043,16.775 2.745,23.768 0.719,2.897 2.758,5.5 3.099,8.606 3.459,7.265 6.72,13.79 11.707,20.665 1.6,2.209 3.236,4.88 5.185,7.577 2.511,3.503 5.49,6.998 7.564,9.986 1.744,2.512 -0.204,6.426 1.385,8.961 -1.103,3.828 1.786,5.823 3.428,7.58 1.655,1.769 1.811,1.769 4.142,3.116 1.049,0.581 1.996,1.735 2.746,2.057 3.53,1.451 5.88,-0.324 8.284,-1.408 1.03,-0.454 2.433,-0.522 3.446,-0.995 7.109,-3.378 15.903,-10.67 20.662,-13.787 -0.839,0.226 -1.78,0.681 -1.727,-0.698 1.254,0.222 1.331,-0.737 2.405,-0.677 0.185,-1.418 1.414,-1.826 3.11,-1.732 4.076,-3.705 10.107,-5.494 14.806,-8.611 7.876,-3.09 12.258,-11.149 13.427,-20.329 0.072,-0.644 -0.39,-0.749 -0.342,-1.358 0.18,-2.822 3.357,-4.753 2.41,-7.582 0.509,-0.413 1.534,-0.287 1.384,-1.382 -0.413,-0.06 -0.988,0.066 -1.036,-0.344 0.035,-1.703 -0.066,-2.926 0,-4.142 0.137,-3.123 2.667,-2.902 3.788,-5.849 -0.816,-0.197 -2.506,0.444 -2.752,-0.327 0.384,-1.027 1.391,-1.378 2.398,-1.729 0.546,-1.249 -1.157,-0.224 -1.019,-1.058 0.486,-0.642 1.067,-1.217 1.721,-1.708 -1.14,0.542 -1.721,0.317 -2.423,0.678 0.726,0.992 -1.576,1.86 -2.762,2.088 -0.336,-0.902 -0.708,-2.739 0.701,-2.766 1.222,-0.536 0.203,1.184 1.043,1.027 0.383,-1.063 -0.12,-0.901 0.341,-1.705 1.619,0.486 2.296,-0.734 3.783,0.678 -0.282,-0.872 -0.852,-1.444 -1.385,-2.06 1.301,-0.057 0.869,-0.51 0.702,-1.402 1.672,-0.617 1.612,-0.168 2.751,-0.33 -0.731,-1.601 0.605,-1.288 1.025,-1.375 0.311,-0.072 1.918,-2.06 2.068,-0.681 0.365,1.735 -0.779,0.039 -1.379,0.681 -0.378,0.384 0.396,2.601 -1.714,1.375 0.773,1.796 -0.444,1.609 -2.068,1.382 -0.084,1.153 1.324,0.713 1.372,1.732 -0.659,0.93 -2.619,0.578 -2.403,2.386 2.164,-0.482 2.385,-2.09 3.788,-3.091 0.647,-0.451 2.728,-0.42 3.087,-2.409 -0.923,-0.194 -1.601,1.57 -2.062,0.705 1.475,-0.771 1.996,-2.949 4.148,-2.08 -0.24,-1.538 2.182,-1.744 3.081,-3.094 0.653,-0.089 0.767,0.385 1.39,0.33 -0.785,-1.514 0.918,-2.19 2.075,-2.736 -0.055,0.417 -0.618,0.771 0,1.027 1.774,-1.993 2.787,-4.789 4.124,-7.226 0.647,1.166 1.24,-0.776 2.409,-0.354 0.971,-3.362 2.866,-6.387 3.447,-10.337 0.833,-5.53 0.323,-13.499 0,-20.335 -0.132,-2.853 -0.059,-7.003 -0.342,-10.31"
   id="path40"
   inkscape:connector-curvature="0"
   style="fill:#ae2c2b" />
</g>
<rect
   x="362.99994"
   y="273.39001"
   width="3.0699999"
   height="27.087"
   id="rect44"
   style="fill:#6b1e1d" />
<g
   id="g58"
   transform="translate(-74.178074,-122.051)">
	<defs
   id="defs47">
		<rect
   id="SVGID_7_"
   width="841.89001"
   height="595.276"
   x="0"
   y="0" />
	</defs>
	<clipPath
   id="SVGID_8_">
		<use
   xlink:href="#SVGID_7_"
   overflow="visible"
   id="use49"
   style="overflow:visible"
   x="0"
   y="0"
   width="100%"
   height="100%" />
	</clipPath>
	<path
   clip-path="url(#SVGID_8_)"
   d="m 460.285,422.528 h -2.638 v -12.881 c 0,-3.24 -1.313,-5.036 -3.766,-5.036 -2.919,0 -5.042,2.92 -5.042,6.9 v 11.017 h -2.748 v -20.007 h 2.604 v 3.633 c 1.275,-2.757 3.216,-4.21 5.698,-4.21 2.631,0 4.939,1.809 5.563,4.372 0.215,1.02 0.329,2.399 0.329,4.64 z"
   id="path52"
   inkscape:connector-curvature="0"
   style="fill:#6b1e1d" />
	<path
   clip-path="url(#SVGID_8_)"
   d="m 463.46,417.334 2.662,-0.63 c 0.583,2.437 2.529,3.779 5.559,3.779 2.567,0 4.277,-1.29 4.277,-3.278 0,-1.595 -1.055,-2.595 -3.107,-3.044 l -3.805,-0.77 c -3.067,-0.667 -4.863,-2.686 -4.863,-5.54 0,-3.527 2.716,-5.908 6.806,-5.908 3.767,0 6.216,1.739 7.091,5.104 l -2.555,0.61 c -0.85,-2.188 -2.272,-3.206 -4.575,-3.206 -2.378,0 -3.873,1.185 -3.873,3.044 0,1.506 0.913,2.403 2.78,2.795 l 3.542,0.702 c 3.688,0.731 5.483,2.686 5.483,5.926 0,3.692 -2.964,6.126 -7.416,6.126 -4.32,0.001 -7.021,-1.919 -8.006,-5.71"
   id="path54"
   inkscape:connector-curvature="0"
   style="fill:#6b1e1d" />
	<path
   clip-path="url(#SVGID_8_)"
   d="m 490.957,420.36 v 2.489 c -1.317,0.162 -1.799,0.195 -2.633,0.195 -3.438,0 -5.154,-1.987 -5.154,-6.054 v -12.033 h -3.221 v -2.437 h 3.221 l 0.111,-5.058 2.591,-0.265 v 5.322 h 4.056 v 2.437 h -4.056 v 12.517 c 0,2.079 0.992,3.139 2.893,3.139 0.768,10e-4 1.097,-0.038 2.192,-0.252"
   id="path56"
   inkscape:connector-curvature="0"
   style="fill:#6b1e1d" />
</g>
<path
   d="m 422.65893,300.477 h -2.773 v -20.063 h 2.773 z m 0.112,-23.594 h -3.037 v -3.493 h 3.037 z"
   id="path60"
   inkscape:connector-curvature="0"
   style="fill:#6b1e1d" />
<g
   id="g76"
   transform="translate(-74.178074,-122.051)">
	<defs
   id="defs63">
		<rect
   id="SVGID_9_"
   width="841.89001"
   height="595.276"
   x="0"
   y="0" />
	</defs>
	<clipPath
   id="SVGID_10_">
		<use
   xlink:href="#SVGID_9_"
   overflow="visible"
   id="use65"
   style="overflow:visible"
   x="0"
   y="0"
   width="100%"
   height="100%" />
	</clipPath>
	<path
   clip-path="url(#SVGID_10_)"
   d="m 510.617,420.36 v 2.489 c -1.316,0.162 -1.79,0.195 -2.632,0.195 -3.438,0 -5.155,-1.987 -5.155,-6.054 v -12.033 h -3.219 v -2.437 h 3.219 l 0.113,-5.058 2.592,-0.265 v 5.322 h 4.054 v 2.437 h -4.054 v 12.517 c 0,2.079 0.991,3.139 2.893,3.139 0.768,10e-4 1.096,-0.038 2.189,-0.252"
   id="path68"
   inkscape:connector-curvature="0"
   style="fill:#6b1e1d" />
	<path
   clip-path="url(#SVGID_10_)"
   d="m 527.873,422.528 h -2.485 v -3.813 c -1.21,2.825 -3.222,4.33 -5.745,4.33 -3.688,0 -5.917,-2.92 -5.917,-7.755 V 402.5 h 2.813 v 12.791 c 0,3.296 1.282,5.121 3.543,5.121 2.78,0 5.012,-2.976 5.012,-6.631 V 402.5 h 2.779 z"
   id="path70"
   inkscape:connector-curvature="0"
   style="fill:#6b1e1d" />
	<path
   clip-path="url(#SVGID_10_)"
   d="m 541.644,420.36 v 2.489 c -1.313,0.162 -1.785,0.195 -2.629,0.195 -3.431,0 -5.154,-1.987 -5.154,-6.054 v -12.059 h -3.221 v -2.434 h 3.221 l 0.104,-5.035 2.604,-0.265 v 5.3 h 4.056 v 2.434 h -4.056 v 12.542 c 0,2.079 0.979,3.135 2.888,3.135 0.761,10e-4 1.097,-0.034 2.187,-0.248"
   id="path72"
   inkscape:connector-curvature="0"
   style="fill:#6b1e1d" />
	<path
   clip-path="url(#SVGID_10_)"
   d="m 565.147,410.22 c -0.146,-1.92 -0.363,-2.724 -1.06,-3.746 -0.836,-1.218 -2.406,-2.06 -3.873,-2.06 -2.854,0 -4.752,3.082 -4.752,7.828 0,5.193 1.749,8.242 4.68,8.242 1.355,0 2.702,-0.736 3.696,-2.026 0.907,-1.219 1.163,-2.022 1.309,-4.066 z m 2.787,-14.779 v 27.088 h -2.524 v -3.426 c -1.505,2.853 -3.109,3.977 -5.708,3.977 -4.238,0 -7.237,-4.297 -7.237,-10.389 0,-6.379 3.039,-10.746 7.385,-10.746 2.27,0 3.694,0.896 5.299,3.273 v -9.777 z"
   id="path74"
   inkscape:connector-curvature="0"
   style="fill:#6b1e1d" />
</g>
<polygon
   points="574.54,404.201 573.29,404.201 575.053,399.507 573.29,399.507 573.29,395.441 576.954,395.441 576.954,399.507 "
   id="polygon78"
   style="fill:#6b1e1d"
   transform="translate(-74.178074,-122.051)" />
<rect
   x="508.36795"
   y="273.39001"
   width="3.0710001"
   height="27.087"
   id="rect80"
   style="fill:#6b1e1d" />
<g
   id="g90"
   transform="translate(-74.178074,-122.051)">
	<defs
   id="defs83">
		<rect
   id="SVGID_11_"
   width="841.89001"
   height="595.276"
   x="0"
   y="0" />
	</defs>
	<clipPath
   id="SVGID_12_">
		<use
   xlink:href="#SVGID_11_"
   overflow="visible"
   id="use85"
   style="overflow:visible"
   x="0"
   y="0"
   width="100%"
   height="100%" />
	</clipPath>
	<path
   clip-path="url(#SVGID_12_)"
   d="m 605.65,422.528 h -2.637 v -12.881 c 0,-3.24 -1.316,-5.04 -3.762,-5.04 -2.927,0 -5.05,2.924 -5.05,6.9 v 11.021 H 591.46 V 402.5 h 2.595 v 3.65 c 1.283,-2.757 3.217,-4.206 5.702,-4.206 2.636,0 4.938,1.829 5.559,4.368 0.222,1.023 0.334,2.399 0.334,4.644 z"
   id="path88"
   inkscape:connector-curvature="0"
   style="fill:#6b1e1d" />
</g>
<polygon
   points="615.331,422.528 608.895,402.5 612.005,402.5 617.011,418.783 621.979,402.5 624.469,402.5 618.257,422.528 "
   id="polygon92"
   style="fill:#6b1e1d"
   transform="translate(-74.178074,-122.051)" />
<g
   id="g106"
   transform="translate(-74.178074,-122.051)">
	<defs
   id="defs95">
		<rect
   id="SVGID_13_"
   width="841.89001"
   height="595.276"
   x="0"
   y="0" />
	</defs>
	<clipPath
   id="SVGID_14_">
		<use
   xlink:href="#SVGID_13_"
   overflow="visible"
   id="use97"
   style="overflow:visible"
   x="0"
   y="0"
   width="100%"
   height="100%" />
	</clipPath>
	<path
   clip-path="url(#SVGID_14_)"
   d="m 638.785,410.451 c -0.041,-3.761 -1.867,-6.126 -4.722,-6.126 -2.885,0 -4.823,2.309 -5.193,6.126 z m 0.177,6.088 2.596,0.611 c -1.161,3.744 -3.98,5.896 -7.638,5.896 -4.969,0 -8.304,-4.172 -8.304,-10.445 0,-6.288 3.445,-10.655 8.377,-10.655 4.969,0 7.784,3.885 7.861,10.837 h -13.09 c 0,2.471 0.146,3.277 0.731,4.617 0.801,1.828 2.668,3.048 4.647,3.048 2.262,-10e-4 3.767,-1.221 4.82,-3.909"
   id="path100"
   inkscape:connector-curvature="0"
   style="fill:#6b1e1d" />
	<path
   clip-path="url(#SVGID_14_)"
   d="m 643.642,417.312 2.667,-0.611 c 0.581,2.438 2.521,3.779 5.558,3.779 2.559,0 4.278,-1.308 4.278,-3.274 0,-1.595 -1.063,-2.616 -3.108,-3.065 l -3.806,-0.771 c -3.069,-0.645 -4.859,-2.667 -4.859,-5.518 0,-3.527 2.704,-5.908 6.799,-5.908 3.766,0 6.22,1.735 7.095,5.104 l -2.56,0.606 c -0.842,-2.184 -2.269,-3.206 -4.567,-3.206 -2.382,0 -3.88,1.185 -3.88,3.048 0,1.501 0.915,2.398 2.782,2.791 l 3.542,0.698 c 3.694,0.739 5.483,2.671 5.483,5.911 0,3.711 -2.96,6.148 -7.423,6.148 -4.312,0.001 -7.021,-1.919 -8.001,-5.732"
   id="path102"
   inkscape:connector-curvature="0"
   style="fill:#6b1e1d" />
	<path
   clip-path="url(#SVGID_14_)"
   d="m 671.137,420.356 v 2.471 c -1.313,0.158 -1.793,0.219 -2.637,0.219 -3.431,0 -5.153,-1.992 -5.153,-6.059 v -12.055 h -3.212 v -2.434 h 3.212 l 0.111,-5.035 2.604,-0.265 v 5.3 h 4.049 v 2.434 h -4.049 v 12.542 c 0,2.078 0.98,3.134 2.882,3.134 0.767,0 1.095,-0.056 2.193,-0.252"
   id="path104"
   inkscape:connector-curvature="0"
   style="fill:#6b1e1d" />
</g>
<path
   d="m 602.84293,300.455 h -2.773 v -20.046 h 2.773 z m 0.106,-23.572 h -3.027 v -3.497 h 3.027 z"
   id="path108"
   inkscape:connector-curvature="0"
   style="fill:#6b1e1d" />
<g
   id="g122"
   transform="translate(-74.178074,-122.051)">
	<defs
   id="defs111">
		<rect
   id="SVGID_15_"
   width="841.89001"
   height="595.276"
   x="0"
   y="0" />
	</defs>
	<clipPath
   id="SVGID_16_">
		<use
   xlink:href="#SVGID_15_"
   overflow="visible"
   id="use113"
   style="overflow:visible"
   x="0"
   y="0"
   width="100%"
   height="100%" />
	</clipPath>
	<path
   clip-path="url(#SVGID_16_)"
   d="m 692.812,408.839 c 0,-2.562 -1.717,-4.458 -3.986,-4.458 -2.372,0 -4.059,1.862 -4.059,4.458 0,2.63 1.609,4.391 4.019,4.391 2.374,0 4.026,-1.792 4.026,-4.391 m -7.383,12.859 c -1.468,0.809 -1.94,1.472 -1.94,2.758 0,1.954 2.232,3.21 5.706,3.21 3.836,0 6.176,-1.218 6.176,-3.172 0,-1.987 -0.916,-2.402 -5.597,-2.509 -1.86,-0.034 -3.47,-0.158 -4.345,-0.287 m 11.918,-22.319 0.031,2.475 h -0.214 c -2.274,0 -2.96,0.483 -3.256,2.274 1.13,1.415 1.717,3.115 1.717,4.84 0,3.885 -2.885,6.643 -6.941,6.643 -0.476,0 -0.881,-0.034 -1.21,-0.129 -0.836,-0.162 -1.021,-0.192 -1.17,-0.192 -0.295,0 -0.692,0.124 -1.021,0.321 -0.592,0.41 -0.918,0.927 -0.918,1.595 0,1.577 0.735,1.808 5.632,1.967 4.354,0.128 5.557,0.47 6.798,1.795 0.845,0.894 1.28,2.078 1.28,3.364 0,3.779 -3.069,5.733 -8.993,5.733 -5.486,0 -8.335,-1.826 -8.335,-5.285 0,-1.953 0.834,-3.172 2.741,-3.975 -1.314,-1.057 -1.756,-1.864 -1.756,-3.245 0,-1.629 0.659,-2.595 2.486,-3.526 -1.678,-1.63 -2.341,-3.134 -2.341,-5.322 0,-3.907 2.928,-6.823 6.875,-6.823 1.356,0 2.487,0.286 3.729,0.894 0.33,-2.505 1.467,-3.455 4.128,-3.455 0.228,-10e-4 0.376,-10e-4 0.738,0.051"
   id="path116"
   inkscape:connector-curvature="0"
   style="fill:#6b1e1d" />
	<path
   clip-path="url(#SVGID_16_)"
   d="m 711.398,412.495 c -1.201,-0.095 -1.866,-0.095 -2.414,-0.091 -4.641,0 -7.203,1.629 -7.203,4.678 0,2.146 1.499,3.561 3.772,3.561 3.359,0 5.878,-2.975 5.878,-6.861 10e-4,-0.36 10e-4,-0.77 -0.033,-1.287 m 3.111,10.007 h -2.781 c -0.184,-1.057 -0.184,-1.321 -0.329,-3.617 -1.063,2.168 -1.787,2.938 -3.286,3.583 -0.921,0.358 -1.938,0.577 -2.998,0.577 -3.768,0 -6.325,-2.438 -6.325,-6.059 0,-1.667 0.726,-3.436 1.822,-4.553 1.571,-1.573 4.39,-2.376 8.414,-2.376 0.69,-0.022 1.172,-0.022 2.373,0.072 v -0.577 c 0,-3.814 -1.243,-5.172 -4.608,-5.172 -2.807,0 -4.459,1.162 -4.936,3.599 l -2.553,-0.521 c 0.579,-3.617 3.289,-5.516 7.858,-5.516 2.887,0 4.713,0.747 5.736,2.343 0.874,1.381 1.204,2.863 1.204,5.844 v 8.489 c 10e-4,1.451 0.113,2.67 0.409,3.884"
   id="path118"
   inkscape:connector-curvature="0"
   style="fill:#6b1e1d" />
	<path
   clip-path="url(#SVGID_16_)"
   d="m 730.332,415.482 2.56,0.506 c -0.475,2.539 -0.916,3.526 -2.118,4.906 -1.32,1.449 -2.856,2.147 -4.899,2.147 -4.605,0 -7.605,-4.156 -7.605,-10.513 0,-6.378 3.104,-10.584 7.751,-10.584 3.729,0 6.137,2.47 6.872,6.996 l -2.56,0.539 c -0.435,-3.296 -1.899,-4.902 -4.313,-4.902 -2.965,0 -4.792,2.987 -4.792,7.856 0,5.002 1.755,7.979 4.723,7.979 2.297,0.001 3.797,-1.667 4.381,-4.93"
   id="path120"
   inkscape:connector-curvature="0"
   style="fill:#6b1e1d" />
</g>
<path
   d="m 665.33093,300.45 h -2.781 v -20.041 h 2.781 z m 0.106,-23.567 h -3.038 v -3.497 h 3.038 z"
   id="path124"
   inkscape:connector-curvature="0"
   style="fill:#6b1e1d" />
<g
   id="g136"
   transform="translate(-74.178074,-122.051)">
	<defs
   id="defs127">
		<rect
   id="SVGID_17_"
   width="841.89001"
   height="595.276"
   x="0"
   y="0" />
	</defs>
	<clipPath
   id="SVGID_18_">
		<use
   xlink:href="#SVGID_17_"
   overflow="visible"
   id="use129"
   style="overflow:visible"
   x="0"
   y="0"
   width="100%"
   height="100%" />
	</clipPath>
	<path
   clip-path="url(#SVGID_18_)"
   d="m 755.988,396.083 -7.638,3.715 -0.738,-1.603 7.168,-4.673 z m 0.842,16.352 c 0,-4.977 -1.868,-7.948 -5.047,-7.948 -3.142,0 -4.973,2.972 -4.973,7.914 0,5.126 1.791,8.079 5.01,8.079 3.142,0 5.01,-2.953 5.01,-8.045 m 3.072,0.128 c 0,6.182 -3.401,10.478 -8.304,10.478 -4.755,0 -7.899,-4.189 -7.899,-10.605 0,-6.25 3.332,-10.491 8.161,-10.491 4.821,-10e-4 8.042,4.24 8.042,10.618"
   id="path132"
   inkscape:connector-curvature="0"
   style="fill:#6b1e1d" />
	<path
   clip-path="url(#SVGID_18_)"
   d="m 440.142,462.806 h 6.54 c 3.111,0 4.972,-1.773 4.972,-4.745 0,-1.38 -0.473,-2.761 -1.274,-3.688 -0.949,-1.128 -2.085,-1.543 -4.171,-1.543 h -6.066 v 9.976 z m 0,-12.576 h 5.3 c 3.728,0 5.521,-1.505 5.521,-4.617 0,-2.688 -1.755,-4.228 -4.755,-4.228 h -6.066 z m -2.964,15.462 v -27.068 h 9.651 c 2.084,0 3.324,0.358 4.573,1.291 1.679,1.218 2.593,3.138 2.593,5.321 0,1.792 -0.654,3.489 -1.716,4.583 -0.691,0.736 -1.212,1.022 -2.638,1.505 1.98,0.642 2.709,1.15 3.623,2.403 1.025,1.346 1.459,2.757 1.459,4.549 0,4.715 -2.886,7.416 -7.929,7.416 z"
   id="path134"
   inkscape:connector-curvature="0"
   style="fill:#6b1e1d" />
</g>
<path
   d="m 387.63793,343.641 h -2.782 v -20.045 h 2.782 z m 0.106,-23.572 h -3.031 v -3.497 h 3.031 z"
   id="path138"
   inkscape:connector-curvature="0"
   style="fill:#6b1e1d" />
<g
   id="g154"
   transform="translate(-74.178074,-122.051)">
	<defs
   id="defs141">
		<rect
   id="SVGID_19_"
   width="841.89001"
   height="595.276"
   x="0"
   y="0" />
	</defs>
	<clipPath
   id="SVGID_20_">
		<use
   xlink:href="#SVGID_19_"
   overflow="visible"
   id="use143"
   style="overflow:visible"
   x="0"
   y="0"
   width="100%"
   height="100%" />
	</clipPath>
	<path
   clip-path="url(#SVGID_20_)"
   d="m 479.146,455.625 c 0,-4.979 -1.875,-7.956 -5.05,-7.956 -3.147,0 -4.971,2.977 -4.971,7.918 0,5.104 1.786,8.079 5.009,8.079 3.137,0 5.012,-2.975 5.012,-8.041 m 3.061,0.124 c 0,6.16 -3.392,10.479 -8.295,10.479 -4.754,0 -7.896,-4.195 -7.896,-10.604 0,-6.25 3.324,-10.517 8.151,-10.517 4.827,10e-4 8.04,4.268 8.04,10.642"
   id="path146"
   inkscape:connector-curvature="0"
   style="fill:#6b1e1d" />
	<path
   clip-path="url(#SVGID_20_)"
   d="m 510.576,465.688 -2.743,0.004 v -12.447 c 0,-3.746 -1.098,-5.451 -3.511,-5.451 -1.13,0 -2.301,0.645 -3.18,1.739 -1.06,1.309 -1.421,2.562 -1.421,4.874 v 11.285 h -2.669 v -13.184 c 0,-2.976 -1.393,-4.839 -3.551,-4.839 -2.486,0 -4.424,2.688 -4.424,6.058 v 11.965 h -2.668 v -20.011 h 2.41 v 3.817 c 1.283,-2.881 3.177,-4.391 5.558,-4.391 2.49,0 4.312,1.758 5.008,4.802 1.204,-3.078 3.215,-4.802 5.707,-4.802 2.227,0 4.279,1.51 5.005,3.651 0.365,1.15 0.479,2.116 0.479,4.485 z"
   id="path148"
   inkscape:connector-curvature="0"
   style="fill:#6b1e1d" />
	<path
   clip-path="url(#SVGID_20_)"
   d="m 527.095,441.346 -0.738,1.611 -7.708,-3.402 1.129,-2.599 z m 0.801,12.286 c -0.034,-3.778 -1.866,-6.122 -4.717,-6.122 -2.888,0 -4.827,2.31 -5.187,6.122 z m 0.178,6.092 2.604,0.607 c -1.178,3.728 -3.983,5.874 -7.646,5.874 -4.978,0 -8.298,-4.173 -8.298,-10.423 0,-6.288 3.439,-10.674 8.37,-10.674 4.97,0 7.79,3.902 7.862,10.837 h -13.088 c 0,2.47 0.145,3.296 0.735,4.617 0.802,1.851 2.663,3.069 4.634,3.069 2.274,0.001 3.77,-1.217 4.827,-3.907"
   id="path150"
   inkscape:connector-curvature="0"
   style="fill:#6b1e1d" />
	<path
   clip-path="url(#SVGID_20_)"
   d="m 546.46,453.403 c -0.144,-1.92 -0.359,-2.725 -1.063,-3.742 -0.834,-1.222 -2.405,-2.082 -3.871,-2.082 -2.857,0 -4.754,3.1 -4.754,7.85 0,5.194 1.754,8.238 4.68,8.238 1.356,0 2.703,-0.736 3.697,-2.021 0.912,-1.22 1.168,-2.049 1.312,-4.066 v -4.177 z m 2.783,-14.779 v 27.065 h -2.524 v -3.403 c -1.501,2.83 -3.109,3.979 -5.709,3.979 -4.238,0 -7.235,-4.301 -7.235,-10.392 0,-6.379 3.036,-10.765 7.382,-10.765 2.275,0 3.701,0.893 5.304,3.296 v -9.781 h 2.782 z"
   id="path152"
   inkscape:connector-curvature="0"
   style="fill:#6b1e1d" />
</g>
<path
   d="m 483.46593,343.637 h -2.782 v -20.045 h 2.782 z m 0.112,-23.572 h -3.039 v -3.493 h 3.039 z"
   id="path156"
   inkscape:connector-curvature="0"
   style="fill:#6b1e1d" />
<g
   id="g176"
   transform="translate(-74.178074,-122.051)">
	<defs
   id="defs159">
		<rect
   id="SVGID_21_"
   width="841.89001"
   height="595.276"
   x="0"
   y="0" />
	</defs>
	<clipPath
   id="SVGID_22_">
		<use
   xlink:href="#SVGID_21_"
   overflow="visible"
   id="use161"
   style="overflow:visible"
   x="0"
   y="0"
   width="100%"
   height="100%" />
	</clipPath>
	<path
   clip-path="url(#SVGID_22_)"
   d="m 573.906,458.668 2.56,0.483 c -0.474,2.561 -0.915,3.526 -2.125,4.907 -1.309,1.467 -2.847,2.146 -4.896,2.146 -4.602,0 -7.602,-4.134 -7.602,-10.491 0,-6.378 3.104,-10.605 7.751,-10.605 3.729,0 6.141,2.471 6.872,7.019 l -2.56,0.539 c -0.434,-3.296 -1.899,-4.907 -4.313,-4.907 -2.965,0 -4.794,2.992 -4.794,7.861 0,5.002 1.757,7.956 4.722,7.956 2.301,10e-4 3.802,-1.667 4.385,-4.908"
   id="path164"
   inkscape:connector-curvature="0"
   style="fill:#6b1e1d" />
	<path
   clip-path="url(#SVGID_22_)"
   d="m 591.302,455.659 c -1.204,-0.072 -1.868,-0.072 -2.407,-0.072 -4.646,0 -7.204,1.611 -7.204,4.655 0,2.173 1.491,3.587 3.766,3.587 3.359,0 5.878,-2.979 5.878,-6.861 -0.001,-0.382 -0.001,-0.769 -0.033,-1.309 m 3.11,10.029 h -2.783 c -0.178,-1.056 -0.178,-1.343 -0.327,-3.617 -1.058,2.146 -1.787,2.942 -3.288,3.583 -0.92,0.355 -1.933,0.552 -2.998,0.552 -3.767,0 -6.322,-2.415 -6.322,-6.036 0,-1.663 0.728,-3.455 1.824,-4.549 1.57,-1.573 4.386,-2.376 8.411,-2.376 0.695,0 1.169,0 2.373,0.067 v -0.577 c 0,-3.813 -1.243,-5.189 -4.603,-5.189 -2.813,0 -4.457,1.18 -4.939,3.617 l -2.556,-0.518 c 0.581,-3.617 3.289,-5.537 7.856,-5.537 2.892,0 4.715,0.77 5.745,2.364 0.868,1.381 1.203,2.886 1.203,5.84 v 8.49 c 10e-4,1.453 0.107,2.668 0.404,3.886"
   id="path166"
   inkscape:connector-curvature="0"
   style="fill:#6b1e1d" />
	<path
   clip-path="url(#SVGID_22_)"
   d="m 619.998,453.403 c -0.146,-1.92 -0.371,-2.725 -1.065,-3.742 -0.838,-1.222 -2.407,-2.082 -3.872,-2.082 -2.854,0 -4.753,3.1 -4.753,7.85 0,5.194 1.753,8.238 4.681,8.238 1.353,0 2.701,-0.736 3.693,-2.021 0.907,-1.22 1.17,-2.049 1.316,-4.066 z m 2.773,-14.779 v 27.065 h -2.52 v -3.403 c -1.497,2.83 -3.107,3.979 -5.704,3.979 -4.24,0 -7.239,-4.301 -7.239,-10.392 0,-6.379 3.031,-10.765 7.389,-10.765 2.261,0 3.689,0.893 5.301,3.296 v -9.781 h 2.773 z"
   id="path168"
   inkscape:connector-curvature="0"
   style="fill:#6b1e1d" />
	<path
   clip-path="url(#SVGID_22_)"
   d="m 640.134,453.632 c -0.033,-3.778 -1.866,-6.126 -4.715,-6.126 -2.891,0 -4.826,2.313 -5.187,6.126 z m 0.181,6.092 2.597,0.607 c -1.17,3.728 -3.989,5.874 -7.639,5.874 -4.977,0 -8.298,-4.173 -8.298,-10.423 0,-6.288 3.434,-10.678 8.364,-10.678 4.976,0 7.791,3.906 7.863,10.841 h -13.084 c 0,2.47 0.146,3.296 0.726,4.617 0.808,1.851 2.676,3.069 4.646,3.069 2.271,0.001 3.769,-1.217 4.825,-3.907"
   id="path170"
   inkscape:connector-curvature="0"
   style="fill:#6b1e1d" />
	<path
   clip-path="url(#SVGID_22_)"
   d="m 659.756,462.806 h 6.54 c 3.109,0 4.977,-1.795 4.977,-4.745 0,-1.381 -0.474,-2.765 -1.275,-3.692 -0.959,-1.15 -2.089,-1.539 -4.176,-1.539 h -6.065 v 9.976 z m 0,-12.576 h 5.297 c 3.734,0 5.53,-1.505 5.53,-4.643 0,-2.663 -1.764,-4.206 -4.762,-4.206 h -6.065 z m -2.96,15.458 v -27.064 h 9.65 c 2.084,0 3.328,0.354 4.565,1.291 1.687,1.214 2.602,3.134 2.602,5.317 0,1.792 -0.656,3.493 -1.717,4.587 -0.697,0.731 -1.215,1.022 -2.637,1.501 1.98,0.646 2.704,1.129 3.617,2.382 1.031,1.346 1.467,2.778 1.467,4.552 0,4.712 -2.893,7.435 -7.933,7.435 h -9.614 z"
   id="path172"
   inkscape:connector-curvature="0"
   style="fill:#6b1e1d" />
	<path
   clip-path="url(#SVGID_22_)"
   d="m 690.385,453.632 c -0.034,-3.778 -1.862,-6.126 -4.718,-6.126 -2.884,0 -4.824,2.313 -5.192,6.126 z m 0.182,6.092 2.595,0.607 c -1.17,3.728 -3.981,5.874 -7.638,5.874 -4.969,0 -8.301,-4.173 -8.301,-10.427 0,-6.284 3.438,-10.674 8.374,-10.674 4.97,0 7.783,3.906 7.855,10.841 h -13.084 c 0,2.47 0.146,3.296 0.729,4.617 0.806,1.851 2.665,3.069 4.646,3.069 2.268,0.001 3.767,-1.217 4.824,-3.907"
   id="path174"
   inkscape:connector-curvature="0"
   style="fill:#6b1e1d" />
</g>
<rect
   x="623.51587"
   y="316.57199"
   width="2.813"
   height="27.065001"
   id="rect178"
   style="fill:#6b1e1d" />
<rect
   x="631.95392"
   y="316.57199"
   width="2.8139999"
   height="27.065001"
   id="rect180"
   style="fill:#6b1e1d" />
<polygon
   points="718.251,465.688 711.816,445.681 714.927,445.681 719.937,461.965 724.906,445.681 727.39,445.681 721.18,465.688 "
   id="polygon182"
   style="fill:#6b1e1d"
   transform="translate(-74.178074,-122.051)" />
<path
   d="m 659.23293,343.637 h -2.773 v -20.045 h 2.773 z m 0.113,-23.594 h -3.032 v -3.472 h 3.032 z"
   id="path184"
   inkscape:connector-curvature="0"
   style="fill:#6b1e1d" />
<g
   id="g198"
   transform="translate(-74.178074,-122.051)">
	<defs
   id="defs187">
		<rect
   id="SVGID_23_"
   width="841.89001"
   height="595.276"
   x="0"
   y="0" />
	</defs>
	<clipPath
   id="SVGID_24_">
		<use
   xlink:href="#SVGID_23_"
   overflow="visible"
   id="use189"
   style="overflow:visible"
   x="0"
   y="0"
   width="100%"
   height="100%" />
	</clipPath>
	<path
   clip-path="url(#SVGID_24_)"
   d="m 747.195,463.538 v 2.472 c -1.312,0.162 -1.793,0.195 -2.635,0.195 -3.439,0 -5.156,-1.987 -5.156,-6.035 v -12.052 h -3.212 v -2.437 h 3.212 l 0.114,-5.036 2.599,-0.286 v 5.322 h 4.049 v 2.437 h -4.049 v 12.534 c 0,2.061 0.983,3.116 2.885,3.116 0.769,0 1.098,-0.034 2.193,-0.23"
   id="path192"
   inkscape:connector-curvature="0"
   style="fill:#6b1e1d" />
	<path
   clip-path="url(#SVGID_24_)"
   d="m 760.462,452 c 0,-2.561 -1.717,-4.458 -3.983,-4.458 -2.373,0 -4.062,1.862 -4.062,4.458 0,2.655 1.611,4.391 4.028,4.391 2.373,-0.001 4.017,-1.792 4.017,-4.391 m -7.382,12.858 c -1.466,0.83 -1.941,1.471 -1.941,2.78 0,1.958 2.229,3.21 5.709,3.21 3.838,0 6.178,-1.222 6.178,-3.172 0,-1.988 -0.919,-2.403 -5.6,-2.527 -1.86,-0.034 -3.471,-0.162 -4.346,-0.291 m 11.918,-22.315 0.04,2.471 h -0.223 c -2.269,0 -2.966,0.505 -3.248,2.273 1.13,1.438 1.709,3.143 1.709,4.841 0,3.906 -2.886,6.665 -6.943,6.665 -0.479,0 -0.873,-0.057 -1.208,-0.129 -0.842,-0.158 -1.02,-0.196 -1.17,-0.196 -0.292,0 -0.691,0.105 -1.021,0.325 -0.584,0.392 -0.911,0.932 -0.911,1.572 0,1.6 0.722,1.825 5.626,1.988 4.344,0.124 5.555,0.449 6.798,1.795 0.843,0.895 1.281,2.057 1.281,3.369 0,3.779 -3.071,5.707 -8.992,5.707 -5.489,0 -8.331,-1.826 -8.331,-5.262 0,-1.954 0.836,-3.173 2.733,-3.98 -1.314,-1.052 -1.75,-1.882 -1.75,-3.237 0,-1.629 0.654,-2.62 2.488,-3.548 -1.684,-1.615 -2.341,-3.12 -2.341,-5.301 0,-3.907 2.919,-6.827 6.869,-6.827 1.349,0 2.486,0.286 3.729,0.898 0.327,-2.527 1.465,-3.459 4.135,-3.459 0.217,0.001 0.361,0.001 0.73,0.035"
   id="path194"
   inkscape:connector-curvature="0"
   style="fill:#6b1e1d" />
	<path
   clip-path="url(#SVGID_24_)"
   d="m 779.294,453.632 c -0.035,-3.778 -1.863,-6.126 -4.716,-6.126 -2.886,0 -4.825,2.313 -5.188,6.126 z m 0.182,6.092 2.6,0.607 c -1.174,3.723 -3.985,5.874 -7.642,5.874 -4.977,0 -8.298,-4.173 -8.298,-10.427 0,-6.284 3.434,-10.674 8.37,-10.674 4.97,0 7.783,3.906 7.855,10.841 h -13.084 c 0,2.466 0.146,3.292 0.732,4.617 0.807,1.824 2.67,3.047 4.641,3.047 2.269,0.001 3.768,-1.222 4.826,-3.885"
   id="path196"
   inkscape:connector-curvature="0"
   style="fill:#6b1e1d" />
</g>
</svg>